<?xml version="1.0" encoding="UTF-8" standalone="no"?>
<svg
   xmlns:dc="http://purl.org/dc/elements/1.1/"
   xmlns:cc="http://creativecommons.org/ns#"
   xmlns:rdf="http://www.w3.org/1999/02/22-rdf-syntax-ns#"
   xmlns:svg="http://www.w3.org/2000/svg"
   xmlns="http://www.w3.org/2000/svg"
   xmlns:sodipodi="http://sodipodi.sourceforge.net/DTD/sodipodi-0.dtd"
   xmlns:inkscape="http://www.inkscape.org/namespaces/inkscape"
   version="1.1"
   id="svg28"
   width="2048"
   height="2048"
   viewBox="0 0 2048 2048"
   sodipodi:docname="Favicon.svg"
   inkscape:version="1.0.2-2 (e86c870879, 2021-01-15)">
  <metadata
     id="metadata34">
    <rdf:RDF>
      <cc:Work
         rdf:about="">
        <dc:format>image/svg+xml</dc:format>
        <dc:type
           rdf:resource="http://purl.org/dc/dcmitype/StillImage" />
        <dc:title></dc:title>
      </cc:Work>
    </rdf:RDF>
  </metadata>
  <defs
     id="defs32" />
  <sodipodi:namedview
     pagecolor="#ffffff"
     bordercolor="#666666"
     borderopacity="1"
     objecttolerance="10"
     gridtolerance="10"
     guidetolerance="10"
     inkscape:pageopacity="0"
     inkscape:pageshadow="2"
     inkscape:window-width="1920"
     inkscape:window-height="1009"
     id="namedview30"
     showgrid="false"
     inkscape:zoom="0.20556641"
     inkscape:cx="1837.8928"
     inkscape:cy="1127.9881"
     inkscape:window-x="-8"
     inkscape:window-y="-8"
     inkscape:window-maximized="1"
     inkscape:current-layer="g46" />
  <g
     inkscape:groupmode="layer"
     inkscape:label="Image"
     id="g36">
    <g
       id="g46"
       transform="translate(165.11027,-20.638784)">
      <path
         style="fill:#c6a72d"
         d="m 1162.1449,1386.7343 c -70.7242,-39.2391 -145.8336,-63.3386 -239.50001,-76.8457 -34.813,-5.0201 -70.5747,-7.5023 -108.10339,-7.5032 -65.79375,0 -120.02578,6.6634 -182.39661,22.4164 -51.72302,13.0637 -87.76443,26.6622 -136.91598,51.6588 -13.97879,7.1091 -25.67879,12.6574 -26,12.3296 -1.43056,-1.4598 25.78858,-22.8147 45.49208,-35.6909 69.35154,-45.3213 152.48681,-72.7774 249.4239,-82.3745 21.72872,-2.1512 81.0908,-2.4585 103,-0.5333 103.4936,9.0946 194.81951,38.3609 262.00001,83.9606 24.5685,16.6762 53.0323,40.2206 48.5,40.1176 -1.1,-0.025 -8.075,-3.4159 -15.5,-7.5354 z"
         id="path52"
         sodipodi:nodetypes="sscssssscsss" />
      <path
         style="fill:#5dc004"
         d="m 829.45169,1256.1334 c -13.1828,-0.1582 -24.30992,-0.6288 -24.72692,-1.0459 -0.417,-0.417 0.5493,-7.2711 2.1473,-15.2313 7.3371,-36.548 12.51402,-80.2553 17.76342,-149.9732 2.5268,-33.5595 2.517,-121.331 -0.017,-148 -5.0084,-52.7199 -14.02192,-90.08862 -29.30602,-121.49996 -4.5011,-9.25039 -3.7591,-9.01333 -18.8926,-6.03621 -13.61,2.67738 -47.5528,3.27147 -62.5,1.09392 -65.4282,-9.53176 -118.0148,-48.43275 -149.4979,-110.59114 -4.9728,-9.81805 -14.0026,-31.66297 -16.9923,-41.10791 -7.4524,-23.54309 -18.9303,-78.87798 -16.7919,-80.95373 1.0391,-1.00864 23.5441,-5.28521 39.7821,-7.55968 18.4338,-2.58206 63.0855,-2.58901 79.5,-0.0124 50.028,7.85307 84.6866,24.03801 112.0265,52.31429 19.5792,20.2498 30.882,38.58886 38.9773,63.24193 5.3558,16.31012 7.08,26.18718 7.7003,44.11092 0.4945,14.28827 -0.7352,32.40989 -2.3003,33.89859 -0.3477,0.33077 -2.0433,-1.16023 -3.768,-3.31336 -34.0877,-42.55541 -66.7548,-72.20183 -103.0134,-93.48799 -22.5115,-13.21567 -56.9019,-28.59452 -54.2125,-24.24294 0.2904,0.46987 7.0387,4.82323 14.9963,9.67413 28.4901,17.36757 49.7591,33.89327 73.9672,57.47157 36.5362,35.58568 57.5593,64.19866 84.68902,115.26405 5.9061,11.11675 9.9468,17.66524 10.7983,17.5 0.763,-0.14806 3.434,-6.19429 6.0805,-13.76405 19.9961,-57.19459 50.3981,-109.20452 90.4149,-154.676 35.0134,-39.78602 66.5785,-67.3497 112.44371,-98.18939 16.3023,-10.96161 13.0522,-11.07978 -7.9968,-0.29076 -68.92241,35.32744 -130.36731,90.53499 -174.74941,157.01032 -3.4349,5.14479 -6.619,8.96979 -7.0757,8.5 -1.3481,-1.3865 -3.7866,-16.03683 -5.0673,-30.44394 -3.4509,-38.81966 2.6502,-74.10007 18.6087,-107.60695 24.483,-51.40547 66.62,-88.33271 128.4807,-112.59573 40.18201,-15.76019 96.93631,-23.77675 147.67141,-20.85862 20.2961,1.16737 35.9529,2.58727 41.2223,3.7384 l 2.3937,0.52292 -0.6811,10.69487 c -2.7812,43.6714 -10.846,90.24514 -21.185,122.34303 -26.8354,83.31148 -79.856,142.76283 -153.8652,172.52721 -18.66831,7.50785 -41.44071,12.78328 -66.51421,15.40863 -12.9716,1.35821 -41.5345,0.77259 -56.426,-1.15689 -9.2264,-1.19544 -9.9722,-1.16036 -11.206,0.52703 -1.8223,2.49211 -9.8559,27.78984 -12.8759,40.54587 -4.9282,20.81577 -8.4981,48.52677 -10.6577,82.72897 -1.2642,20.0222 -0.5947,100.3834 1.102,132.271 3.4861,65.5163 11.5743,167.2559 15.065,189.5 0.5179,3.3 0.945,7.4625 0.9491,9.25 l 0.01,3.25 -6.25,-0.231 c -3.4375,-0.1271 -17.0359,-0.3605 -30.2186,-0.5186 z"
         id="path50"
         sodipodi:nodetypes="sssscsssssssssssssssssssssssssssssscssssssssssccsss" />
      <path
         style="fill:#141d39"
         d="m 821.64489,1501.7982 c -42.101,-4.1852 -72.78139,-12.6316 -105.5,-29.0442 -28.909,-14.5017 -49.29813,-28.9614 -72.32234,-51.2903 -6.56673,-6.3684 -15.73769,-16.0789 -20.37991,-21.5789 -8.25475,-9.7801 -29.29775,-40.1895 -29.29775,-42.3384 0,-0.5965 1.9125,-1.5973 4.25,-2.224 2.3375,-0.6267 9.83921,-2.669 16.67046,-4.5385 6.83125,-1.8695 12.77112,-3.3991 13.19972,-3.3991 0.42859,0 3.92802,4.6125 7.77651,10.25 37.98411,55.6414 94.55888,93.6386 157.2554,105.617 24.22941,4.6292 58.21441,5.3249 81.34791,1.6652 61.7881,-9.7745 114.6722,-40.6475 153.83201,-89.805 4.7201,-5.9251 9.365,-12.0985 10.322,-13.7187 0.9571,-1.6202 2.214,-3.1243 2.7931,-3.3424 0.5791,-0.2182 8.2492,1.9181 17.0447,4.7474 11.533,3.7098 16.0821,5.6124 16.3154,6.8239 0.5277,2.7403 -14.9436,24.0034 -29.2167,40.1543 -8.8551,10.0201 -27.4597,26.8203 -40.6344,36.6936 -39.62801,29.6976 -79.45371,46.1536 -129.45611,53.4914 -9.6644,1.4182 -45.834,2.6484 -54,1.8367 z m 265.46971,-195.7869 c -7.4417,-3.9196 -14.0068,-7.4458 -14.5892,-7.8361 -0.7146,-0.4789 -0.1403,-4.2185 1.7658,-11.5 5.9531,-22.7412 7.2803,-33.6177 7.2955,-59.7904 0.015,-26.1608 -0.8161,-34.3923 -5.6007,-55.4506 -4.2984,-18.9182 -9.7017,-34.0152 -18.808,-52.5494 -13.2504,-26.969 -28.1933,-47.6495 -49.1705,-68.0505 -35.72801,-34.7466 -78.03051,-56.6826 -127.36261,-66.0441 -4.95,-0.9393 -9.1723,-1.8495 -9.3828,-2.0227 -0.7198,-0.5922 -0.01,-32.8809 0.7427,-33.6365 1.7153,-1.7292 41.2509,6.8488 56.6401,12.2891 58.8346,20.7987 109.60461,60.6166 143.44751,112.5029 21.8236,33.4589 36.1408,71.4726 42.7333,113.4618 2.765,17.611 2.5063,59.4617 -0.4852,78.5 -3.2212,20.4995 -10.2639,46.6081 -12.6956,47.065 -0.55,0.1034 -7.0886,-3.019 -14.5303,-6.9385 z m -516.30009,-8.3765 c -1.07242,-1.7937 -4.73666,-16.6396 -6.60237,-26.75 -8.44467,-45.762 -3.63565,-96.8037 13.41343,-142.3667 8.92231,-23.8445 25.43351,-52.7118 43.54593,-76.1333 10.17758,-13.1608 34.17162,-36.6779 48.78631,-47.8164 23.97023,-18.2689 52.61571,-33.6849 79.67181,-42.8765 18.00029,-6.1151 50.92268,-13.393 52.53232,-11.6129 1.01819,1.126 3.08371,31.605 2.2016,32.4871 -0.39606,0.3961 -6.34478,1.8946 -13.21938,3.3301 -73.48256,15.3435 -136.26047,64.0181 -170.2321,131.9886 -8.54465,17.0962 -12.88664,28.1909 -17.21961,44 -4.54885,16.5967 -6.23758,26.4698 -7.61146,44.5 -1.69485,22.2425 0.3023,49.0443 5.09986,68.4404 2.4638,9.9608 2.453,10.397 -0.28596,11.5482 -1.2375,0.5202 -8.08533,3.4355 -15.2174,6.4786 -13.62745,5.8144 -14.14635,5.9814 -14.86298,4.7828 z"
         id="path48" />
    </g>
  </g>
</svg>
