<?xml version="1.0" encoding="UTF-8" standalone="no"?>
<svg
   xmlns:dc="http://purl.org/dc/elements/1.1/"
   xmlns:cc="http://creativecommons.org/ns#"
   xmlns:rdf="http://www.w3.org/1999/02/22-rdf-syntax-ns#"
   xmlns:svg="http://www.w3.org/2000/svg"
   xmlns="http://www.w3.org/2000/svg"
   xmlns:sodipodi="http://sodipodi.sourceforge.net/DTD/sodipodi-0.dtd"
   xmlns:inkscape="http://www.inkscape.org/namespaces/inkscape"
   version="1.1"
   id="svg10"
   width="2048"
   height="2048"
   viewBox="0 0 2048 2048"
   sodipodi:docname="GPFI.svg"
   inkscape:version="1.0.2-2 (e86c870879, 2021-01-15)">
  <metadata
     id="metadata16">
    <rdf:RDF>
      <cc:Work
         rdf:about="">
        <dc:format>image/svg+xml</dc:format>
        <dc:type
           rdf:resource="http://purl.org/dc/dcmitype/StillImage" />
        <dc:title></dc:title>
      </cc:Work>
    </rdf:RDF>
  </metadata>
  <defs
     id="defs14" />
  <sodipodi:namedview
     pagecolor="#ffffff"
     bordercolor="#666666"
     borderopacity="1"
     objecttolerance="10"
     gridtolerance="10"
     guidetolerance="10"
     inkscape:pageopacity="0"
     inkscape:pageshadow="2"
     inkscape:window-width="1920"
     inkscape:window-height="1009"
     id="namedview12"
     showgrid="false"
     inkscape:zoom="0.20556641"
     inkscape:cx="818.38835"
     inkscape:cy="1063.4558"
     inkscape:window-x="-8"
     inkscape:window-y="-8"
     inkscape:window-maximized="1"
     inkscape:current-layer="g22" />
  <g
     inkscape:groupmode="layer"
     inkscape:label="Image"
     id="g18">
    <g
       id="g22"
       transform="translate(34.052269,-68.104514)"
       inkscape:transform-center-x="948.59857"
       inkscape:transform-center-y="-535.10689">
      <path
         style="fill:#7cba34"
         d="m 413,1287.5478 c -21.94867,-2.8093 -46.75172,-9.6207 -67.65973,-18.5805 -57.34335,-24.5736 -107.78685,-75.3019 -131.60158,-132.3448 -14.82911,-35.5198 -20.43043,-65.8116 -19.4384,-105.1225 0.77443,-30.688 4.89581,-52.77894 14.80073,-79.33308 21.32113,-57.15996 61.80242,-104.35115 114.39898,-133.36099 67.30205,-37.12071 147.93401,-40.76572 219.47759,-9.9216 31.95554,13.77678 66.66854,39.9664 90.25333,68.09264 16.14711,19.25637 32.36747,46.38812 41.56342,69.52303 C 685.55089,973.56101 692,1007.8575 692,1038 c 0,75.244 -32.38714,145.4499 -88.8593,192.6211 -34.92245,29.1708 -71.14926,46.2057 -117.05906,55.0446 -11.91238,2.2935 -16.59283,2.6524 -38.08164,2.9205 -16.37754,0.2043 -27.98106,-0.14 -35,-1.0384 z m 19.30892,-26.2978 c 0.32051,-3.7125 1.13242,-20.0852 1.80424,-36.3838 0.93729,-22.739 0.95146,-32.7437 0.0609,-43 -2.3783,-27.3901 -9.71738,-51.5374 -22.11588,-72.7666 L 407.91178,1102 h -7.8249 c -14.39569,0 -33.09675,-4.2197 -46.97035,-10.5985 -17.40436,-8.002 -35.95199,-23.666 -46.87371,-39.586 -15.37977,-22.4183 -26.59421,-55.51943 -28.87871,-85.23999 -0.62172,-8.08841 -0.56573,-8.39775 1.74679,-9.65076 3.39424,-1.83912 28.3333,-2.43089 42.09548,-0.99887 26.6765,2.77581 50.76067,10.25074 68.60621,21.2931 9.14107,5.65625 23.69967,19.19214 28.9934,26.95662 8.28473,12.1516 15.04281,29.6997 17.24924,44.7895 1.91915,13.1252 0.23302,36.7721 -2.69151,37.747 -0.56498,0.1883 -3.65164,-3.6074 -6.85926,-8.4348 -16.48148,-24.8048 -38.69789,-46.9669 -64.87093,-64.7122 C 352.34114,1007.2649 350,1006.0979 350,1007.7663 c 0,0.4215 5.20559,5.934 11.56797,12.25 6.36239,6.316 15.28468,15.7587 19.82733,20.9837 23.38044,26.8924 47.44193,64.9133 59.3296,93.75 1.19034,2.8875 2.55639,5.25 3.03567,5.25 0.47927,0 1.92733,-2.5875 3.21792,-5.75 14.75003,-36.1441 44.18539,-79.3603 77.98811,-114.5 7.27476,-7.5625 12.59337,-13.75 11.81912,-13.75 -2.29868,0 -18.86139,11.8028 -30.87241,22 -16.3193,13.8549 -29.66505,29.1079 -49.75938,56.8705 -3.16245,4.3693 -3.65591,3.4324 -5.20341,-9.8787 -5.22974,-44.9845 17.57562,-85.79323 58.38938,-104.48399 23.84579,-10.92024 56.63581,-17.30357 83.31163,-16.21852 16.38811,0.66659 17.35036,1.11024 17.34257,7.99589 -0.0147,13.02303 -5.61524,38.68492 -12.49871,57.26962 -18.39758,49.672 -57.22666,79.3088 -108.76863,83.0191 l -9.77325,0.7035 -4.39247,8.1113 c -10.26599,18.9575 -17.70345,40.6209 -20.63739,60.1113 -2.11358,14.0406 -1.29663,58.041 1.6783,90.393 l 0.58787,6.393 9.01365,-0.6398 c 17.0721,-1.2118 40.80782,-6.9808 61.299,-14.8988 42.05734,-16.2515 80.40123,-47.5434 107.0512,-87.3631 14.54032,-21.7257 27.66196,-53.4267 32.85875,-79.3843 3.78264,-18.8941 4.7805,-28.8464 4.76251,-47.5 -0.0247,-25.6467 -4.04359,-50.92416 -11.84472,-74.5 -7.1396,-21.57665 -25.24996,-53.9563 -40.82906,-72.99859 -3.02864,-3.7019 -10.79403,-11.86516 -17.25642,-18.14057 -35.93041,-34.89081 -83.95045,-57.32177 -134.45532,-62.80632 -22.27185,-2.4186 -51.00196,-0.83259 -73.59722,4.06286 -41.27002,8.94149 -85.7288,34.33653 -115.68155,66.07777 -33.44981,35.44711 -54.76681,79.89868 -61.04973,127.30485 -2.25917,17.046 -2.26721,45.6695 -0.0175,62.4247 10.06055,74.9293 59.54249,142.635 128.63074,176.0044 25.70729,12.4166 59.51648,21.641 80.53896,21.974 l 6.11309,0.097 0.58274,-6.75 z m 495.78924,-39.5147 c -3.36012,-1.7281 -4.87619,-4.3573 -3.37703,-5.8564 0.90157,-0.9016 1.76364,-0.7913 3.69234,0.4724 4.31957,2.8303 9.58653,1.6422 9.58653,-2.1626 0,-1.0691 -0.84176,-1.2534 -3.47214,-0.7599 -7.1663,1.3444 -12.52786,-3.7983 -12.52786,-12.0164 0,-9.1183 4.73964,-12.827 15.01943,-11.7526 L 943,1190.2849 v 12.3105 c 0,13.8661 -0.80617,16.6102 -5.53969,18.8564 -3.91941,1.8599 -6.16475,1.9279 -9.36215,0.2835 z m 8.47413,-14.8152 c 2.22144,-2.4546 2.52503,-8.893 0.53254,-11.2938 -1.74214,-2.0991 -5.94095,-2.0846 -8.27609,0.029 -2.75278,2.4912 -2.51017,9.7543 0.39377,11.7883 3.00775,2.1067 5.10485,1.9574 7.34978,-0.5232 z m 420.60391,14.8561 c -0.7993,-0.7993 -1.1762,-6.0888 -1.1762,-16.5075 v -15.3314 l 3.25,0.058 c 1.7875,0.032 4.653,-0.2213 6.3677,-0.5628 4.2279,-0.8421 8.7087,1.6279 10.7475,5.9243 2.0079,4.2314 2.0699,7.6658 0.2183,12.0972 -2.0405,4.8836 -5.6214,6.9143 -11.1031,6.2964 l -4.4804,-0.505 v 3.7547 c 0,4.2542 -1.9322,6.6674 -3.8238,4.7758 z m 13.4907,-14.3522 c 2.1616,-2.1616 2.4905,-3.2137 2.0445,-6.5392 -0.2924,-2.1798 -1.0772,-4.6206 -1.7439,-5.424 -1.6217,-1.954 -5.8772,-1.8525 -8.1388,0.1942 -2.592,2.3458 -2.4902,9.6835 0.1713,12.345 2.6641,2.6641 4.57,2.5209 7.6669,-0.576 z M 1443,1221.1084 c 0,-1.1466 0.9171,-2.1218 2.3286,-2.476 4.4827,-1.1251 4.9532,-4.7389 1.7418,-13.3779 -5.224,-14.0532 -4.8577,-13.3884 -6.803,-12.3468 -0.9721,0.5205 -2.5549,1.19 -3.5174,1.4879 -1.4335,0.4437 -1.75,1.7267 -1.75,7.0945 0,6.046 0.1963,6.6422 2.539,7.7096 3.1562,1.4381 2.8267,4.1967 -0.5485,4.5927 -4.9514,0.5809 -6.431,-1.7894 -6.8374,-10.9534 -0.2554,-5.7605 -0.8001,-8.5863 -1.7614,-9.1387 -1.8075,-1.0386 -1.7869,-3.3347 0.036,-4.0343 0.7853,-0.3013 1.5728,-1.812 1.75,-3.3569 0.4133,-3.6046 3.9617,-3.9539 4.7839,-0.471 0.6253,2.6488 6.2352,5.5649 7.7642,4.0359 1.9023,-1.9023 4.1035,0.4152 6.4319,6.7719 1.3136,3.5861 2.828,6.5954 3.3653,6.6872 0.5372,0.092 2.0313,-2.8386 3.3202,-6.5119 2.2889,-6.5236 4.4975,-8.8803 6.4719,-6.9059 1.4245,1.4245 -9.8452,29.642 -12.6129,31.5806 -3.0941,2.1672 -6.7024,1.9586 -6.7024,-0.3875 z m 176.7958,0.7904 c -2.9505,-1.1292 -4.5934,-4.5012 -2.9794,-6.1152 0.6867,-0.6867 1.7612,-0.4925 3.3218,0.6007 2.9227,2.0471 6.2697,2.065 8.2904,0.044 2.5698,-2.5698 1.8427,-3.2391 -3.3459,-3.0797 -5.8759,0.1805 -9.4567,-2.5274 -11.2479,-8.5061 -0.9336,-3.116 -0.8273,-4.574 0.6076,-8.3312 2.2665,-5.9347 5.2883,-7.505 13.6588,-7.0979 l 6.3988,0.3111 0.2787,13.0897 c 0.2784,13.0764 0.2759,13.0929 -2.5,16.1723 -3.1039,3.4435 -8.0684,4.6016 -12.4829,2.912 z m 7.9817,-14.4555 c 1.6843,-1.1798 2.2225,-2.553 2.2225,-5.6713 0,-6.7505 -4.8769,-10.0033 -9.1713,-6.117 -2.7527,2.4912 -2.5101,9.7543 0.3938,11.7883 1.2224,0.8562 2.6973,1.5567 3.2775,1.5567 0.5802,0 2.0551,-0.7005 3.2775,-1.5567 z m -390.555,13 c -2.3049,-1.6144 -2.9075,-3.9019 -1.2912,-4.9009 0.5122,-0.3165 2.5253,0.1846 4.4735,1.1136 2.8534,1.3607 4.0335,1.4653 6.0687,0.538 1.3896,-0.6331 2.5265,-1.8859 2.5265,-2.7839 0,-1.313 -0.6612,-1.5086 -3.3766,-0.9992 -4.5998,0.8629 -8.2338,-0.7235 -10.6192,-4.636 -3.6528,-5.9911 -2.2649,-14.0331 3.1103,-18.0226 2.2437,-1.6653 3.5512,-1.8402 9.2185,-1.2333 5.2402,0.5612 6.7286,1.0996 7.207,2.6069 0.3316,1.0449 0.2846,7.0687 -0.1045,13.3865 -0.6423,10.4303 -0.9373,11.7167 -3.2078,13.9871 -1.9489,1.949 -3.5241,2.5005 -7.1416,2.5005 -2.5821,0 -5.6271,-0.6906 -6.8636,-1.5567 z m 10.3364,-12.8627 c 2.3412,-1.7119 2.7055,-9.3522 0.5687,-11.9269 -2.0015,-2.4116 -6.7018,-2.0997 -8.5709,0.5688 -4.7544,6.7879 1.708,15.9605 8.0022,11.3581 z m -454.1182,5.1255 c -0.27309,-0.7117 -0.37147,-8.0242 -0.21861,-16.25 L 793.5,1181.5 l 10.25,-0.285 c 9.55427,-0.2656 10.25,-0.1541 10.25,1.643 0,2.5395 -1.8484,3.142 -9.63929,3.142 H 797.885 l 0.3075,4.25 0.3075,4.25 6.5,0.3028 c 7.1695,0.334 9.00139,1.2857 7.03517,3.6548 -0.9086,1.0948 -3.13074,1.5424 -7.65761,1.5424 H 798 v 5.4182 c 0,2.98 -0.27314,6.13 -0.60699,7 -0.73166,1.9067 -3.26043,2.0909 -3.95231,0.2879 z m 27.87312,-0.6563 C 817.10393,1209.4828 816,1207.1801 816,1200.9657 c 0,-4.5414 0.41091,-5.5766 3.4,-8.5657 4.75545,-4.7554 9.46631,-4.7337 14.2659,0.066 2.78787,2.7879 3.4041,4.1084 3.15,6.75 l -0.3159,3.2841 -7,0.3009 c -8.07251,0.3471 -9.64161,1.2802 -7.02138,4.1755 1.93902,2.1426 7.91102,2.8202 9.02138,1.0236 0.94418,-1.5277 4.5,-1.19 4.5,0.4274 0,2.2674 -4.97712,5.573 -8.38486,5.5689 -1.71333,0 -4.54892,-0.878 -6.30132,-1.9465 z m 9.36328,-14.6507 c 0.69854,-1.8204 -1.2212,-3.3685 -4.1771,-3.3685 -2.9559,0 -4.87564,1.5481 -4.1771,3.3685 0.40422,1.0534 1.83286,1.6009 4.1771,1.6009 2.34424,0 3.77288,-0.5475 4.1771,-1.6009 z m 13.93778,14.5126 C 841.36217,1209.3531 839,1204.9729 839,1201.5 c 0,-5.7922 5.90289,-12.5 11,-12.5 5.13537,0 11.85675,7.7252 10.48414,12.05 -0.5405,1.7029 -1.56067,1.95 -8.05153,1.95 -7.91649,0 -9.24746,1.0423 -5.77068,4.5191 1.6494,1.6494 4.87337,1.6393 10.08807,-0.032 3.59481,-1.1517 3.00156,3.0724 -0.70034,4.9867 -4.08695,2.1135 -8.296,1.9064 -11.43478,-0.5626 z m 9.91219,-13.9555 c 1.0564,-1.7093 -1.5643,-3.9562 -4.61433,-3.9562 -2.7525,0 -5.61243,2.967 -4.21089,4.3685 1.04264,1.0427 8.13067,0.7115 8.82522,-0.4123 z m 11.76067,12.6687 c -3.40691,-3.1222 -3.71537,-3.852 -3.70502,-8.7653 0.0187,-8.8789 5.20235,-13.8729 12.90061,-12.4287 L 879,1190.0906 v -4.4228 c 0,-4.5905 1.66101,-7.1134 3.80915,-5.7858 0.92625,0.5725 1.17199,4.9201 0.96646,17.0982 l -0.27561,16.3306 -6.74797,0.3599 c -6.49818,0.3466 -6.88555,0.2339 -10.46429,-3.0458 z m 10.48975,-2.1816 c 1.77953,-1.2464 2.22251,-2.5277 2.22251,-6.4286 0,-5.3762 -1.76164,-8.0244 -5.32143,-7.9994 -3.19914,0.023 -4.60283,1.2338 -5.64641,4.8726 -1.05329,3.6726 0.102,7.8862 2.704,9.8621 2.1564,1.6375 3.35226,1.5768 6.04133,-0.3067 z m 13.88918,4.89 c -1.11751,-1.1175 -0.76923,-23.1519 0.37713,-23.8604 0.5741,-0.3548 1.6991,-0.1012 2.5,0.5635 1.09358,0.9075 1.4562,3.6478 1.4562,11.0043 0,5.3876 -0.27314,10.5075 -0.60699,11.3775 -0.62378,1.6256 -2.54427,2.0972 -3.72634,0.9151 z m 8.79331,-0.577 c -0.29369,-0.7653 -0.40483,-6.0861 -0.24698,-11.8239 l 0.287,-10.4324 6.93074,-0.8895 6.93075,-0.8895 2.81925,3.1553 c 2.64608,2.9614 2.81926,3.7035 2.81926,12.0805 0,9.0739 -0.85245,11.2405 -3.5438,9.0068 -1.04354,-0.866 -1.4562,-3.3841 -1.4562,-8.886 0,-8.0793 -0.88875,-10.0889 -4.45,-10.0623 -4.2565,0.032 -5.02784,1.5169 -5.55,10.6856 -0.4178,7.3363 -0.7882,8.8345 -2.25302,9.1133 -0.96417,0.1835 -1.99332,-0.2926 -2.287,-1.0579 z m 58.09423,0.3314 c -0.34775,-0.5627 2.1632,-8.0349 5.57987,-16.6051 5.83853,-14.6449 6.36178,-15.564 8.7004,-15.2823 2.19644,0.2645 3.23438,2.0951 8.8499,15.608 3.4989,8.4195 6.09972,15.732 5.77961,16.25 -1.2526,2.0267 -3.51616,0.7598 -5.46399,-3.0583 l -2.04065,-4 h -6.9718 -6.97181 l -1.75943,3.7366 c -1.74513,3.7062 -4.48681,5.3175 -5.7021,3.3511 z M 976,1199.5829 c 0,-0.7794 -0.93198,-3.5913 -2.07107,-6.2487 -1.73029,-4.0366 -2.22972,-4.5481 -3.03526,-3.1087 -1.75684,3.1393 -3.75073,9.5841 -3.15075,10.1841 0.32473,0.3247 2.31541,0.5904 4.42375,0.5904 2.64106,0 3.83333,-0.4408 3.83333,-1.4171 z m 14.40624,11.8995 c -0.36587,-1.4577 -0.37221,-5.5103 -0.0141,-9.0059 0.61352,-5.9883 0.49825,-6.4972 -1.99538,-8.8094 -2.59979,-2.4107 -2.57308,-4.6671 0.0553,-4.6671 1.46578,0 2.54797,-2.1343 2.54797,-5.0251 0,-3.8203 9.02187,-6.9662 10.31487,-3.5968 0.6012,1.5669 -1.0895,3.6219 -2.97969,3.6219 -0.69565,0 -1.75005,0.9067 -2.34312,2.0148 -0.85097,1.5901 -0.75298,2.1172 0.46482,2.5 0.84871,0.2669 2.21812,0.6961 3.04312,0.9538 2.51067,0.7844 1.67777,3.2738 -1.46161,4.3682 l -2.96161,1.0324 -0.28839,9.304 c -0.24344,7.8537 -0.5556,9.3551 -2.00266,9.6318 -1.15716,0.2213 -1.93046,-0.5335 -2.37949,-2.3226 z m 13.26046,1.8509 C 1003.3,1212.9667 1003,1207.5669 1003,1201.3339 v -11.3327 l 3.25,0.032 c 1.7875,0.017 4.5876,-0.095 6.2225,-0.2506 4.6783,-0.4446 4.5782,2.7081 -0.1567,4.9322 -3.7954,1.7829 -3.8172,1.8272 -4.0716,8.2889 -0.1407,3.573 -0.4867,7.5089 -0.769,8.7464 -0.4943,2.1668 -2.4232,2.9687 -3.8085,1.5833 z m 15.7662,-0.6476 c -0.2774,-0.7228 -0.3758,-6.2353 -0.2186,-12.25 0.2658,-10.1738 0.425,-10.9357 2.2857,-10.9357 1.8472,0 2.0223,0.7641 2.2923,10 0.1608,5.5 0.04,11.0125 -0.269,12.25 -0.61,2.4449 -3.2771,3.055 -4.0904,0.9357 z m 12.5048,-1.4501 c -5.6748,-5.0704 -5.6018,-14.4437 0.1525,-19.5995 2.7645,-2.477 3.7904,-2.797 7.5936,-2.3683 4.8241,0.5438 8.3162,3.0159 8.3162,5.8872 0,2.2584 -3.2272,2.4811 -5,0.345 -1.714,-2.0653 -6.3435,-1.8829 -8.345,0.3287 -0.9617,1.0627 -1.655,3.5112 -1.655,5.8451 0,6.5701 5.0268,9.3204 10.4912,5.74 4.616,-3.0245 6.3001,1.032 1.8739,4.5136 -3.8858,3.0566 -9.5594,2.7643 -13.4274,-0.6918 z m 21.6673,0.4872 c -1.3439,-1.2225 -2.7361,-3.2386 -3.0939,-4.48 -1.0024,-3.4785 3.9625,-7.8914 9.8763,-8.7782 3.6108,-0.5415 4.637,-1.0876 4.3894,-2.3356 -0.3441,-1.734 -4.6661,-1.996 -10.0268,-0.6079 -2.0705,0.5361 -2.75,0.3509 -2.75,-0.7495 0,-3.9261 7.889,-6.8886 12.8603,-4.8295 4.3422,1.7987 5.2605,4.4903 4.9321,14.4565 l -0.2924,8.8717 -6.7258,0.3377 c -5.8258,0.2925 -7.0528,0.04 -9.1692,-1.8852 z m 10.0451,-3.4881 c 0.6325,-0.4041 1.3075,-1.6347 1.5,-2.7347 0.2775,-1.5865 -0.2703,-2.0608 -2.6501,-2.2941 -3.7153,-0.3641 -7.0648,1.8798 -6.1939,4.1495 0.6517,1.6983 5.208,2.2438 7.344,0.8793 z m 11.3605,4.278 c -1.7859,-2.1518 -0.4835,-4.5127 2.4894,-4.5127 1.4095,0 2.824,0.6807 3.1433,1.5127 0.6627,1.7271 -1.2708,4.4873 -3.1433,4.4873 -0.6903,0 -1.8106,-0.6693 -2.4894,-1.4873 z m 28.8479,-0.6702 c -4.9705,-2.8823 -7.8585,-8.3132 -7.8585,-14.7783 0,-5.9691 1.6968,-9.7899 5.9294,-13.3513 5.5172,-4.6425 13.5414,-4.4173 18.8206,0.528 4.7334,4.434 1.1833,7.5636 -3.812,3.3604 -4.4197,-3.719 -8.3027,-3.4366 -12.66,0.9207 -3.3634,3.3634 -3.5009,3.7763 -3.0538,9.168 0.396,4.7757 0.9568,6.0825 3.6378,8.478 4.1704,3.7262 9.2146,3.8463 12.7573,0.3036 3.2921,-3.292 2.6723,-4.7518 -2.4472,-5.7642 -3.2194,-0.6367 -4.1721,-1.2788 -4.1721,-2.8119 0,-1.8155 0.5824,-1.9614 6.75,-1.6912 l 6.75,0.2957 0.3115,4.3317 c 0.746,10.374 -11.2132,16.6586 -20.953,11.0108 z m 25.2206,0.3054 c -1.3781,-2.5752 -1.0971,-20.9343 0.3358,-21.9328 0.5968,-0.4159 3.3274,-0.7469 6.068,-0.7356 3.8938,0.016 5.0556,0.3941 5.3155,1.7297 0.2262,1.1627 -0.7884,2.1776 -3.1734,3.1741 -3.8294,1.6 -4.3995,3.1831 -4.8757,13.5381 -0.2633,5.7257 -1.8747,7.5813 -3.6702,4.2265 z m 17.6911,-0.114 c -5.9367,-4.6698 -6.3846,-15.3087 -0.8527,-20.2515 4.6243,-4.1318 10.1662,-3.8987 14.6825,0.6176 3.0713,3.0713 3.4,3.951 3.4,9.1 0,5.149 -0.3287,6.0287 -3.4,9.1 -2.7234,2.7234 -4.1891,3.4 -7.3651,3.4 -2.4282,0 -4.934,-0.7621 -6.4647,-1.9661 z m 10.9798,-4.826 c 1.8948,-2.4105 1.5788,-9.6155 -0.5,-11.4009 -3.2856,-2.8219 -5.2403,-2.9076 -7.8055,-0.3424 -3.3576,3.3576 -3.3255,8.7453 0.072,12.143 2.7297,2.7296 5.8942,2.576 8.2334,-0.3997 z m 14.9456,4.5421 c -0.7427,-1.2375 -2.6391,-6.4166 -4.214,-11.509 -2.1561,-6.9713 -2.5798,-9.5428 -1.715,-10.4076 1.8891,-1.8891 4.0147,0.756 5.8425,7.2702 0.91,3.243 2.0061,5.8964 2.4359,5.8964 0.4297,0 1.6212,-2.8125 2.6477,-6.25 1.6274,-5.45 2.1788,-6.25 4.3073,-6.25 2.1321,0 2.6804,0.8019 4.3333,6.3372 1.0408,3.4854 2.2418,5.9604 2.6688,5.5 0.4271,-0.4605 1.5072,-3.4018 2.4003,-6.5363 1.7829,-6.2573 3.1205,-7.7536 5.0679,-5.6692 1.0444,1.1178 0.6985,3.2435 -1.8898,11.6122 -1.7425,5.6341 -3.6919,10.7675 -4.332,11.4076 -1.8325,1.8325 -3.9791,-0.621 -5.9142,-6.7599 -0.9347,-2.9654 -2.0312,-5.3916 -2.4366,-5.3916 -0.4053,0 -1.5077,2.3625 -2.4497,5.25 -2.6577,8.1468 -4.3408,9.5178 -6.7524,5.5 z m 28.9711,1.5833 c -0.3667,-0.3666 -0.6667,-5.7979 -0.6667,-12.0695 0,-11.2532 0.03,-11.3987 2.25,-11.0834 2.1461,0.3048 2.2632,0.7977 2.5361,10.6736 0.1873,6.7762 -0.1142,10.8364 -0.8724,11.75 -1.2729,1.5337 -2.2281,1.7483 -3.247,0.7293 z m 8.9591,-0.866 c -0.8722,-2.2731 -0.7569,-19.7186 0.1395,-21.097 0.4041,-0.6214 3.5386,-1.4521 6.9656,-1.846 6.0199,-0.692 6.3333,-0.614 9.25,2.3028 2.9124,2.9124 3.0191,3.3378 3.0191,12.037 0,8.953 -0.9487,11.5872 -3.3193,9.2166 -0.6298,-0.6298 -1.3143,-4.6181 -1.5211,-8.8629 -0.4099,-8.4153 -1.2319,-10.2178 -4.6596,-10.2178 -3.6611,0 -4.9629,2.6955 -5.5,11.3885 -0.3966,6.4182 -0.836,8.1562 -2.1242,8.401 -0.8933,0.1698 -1.9058,-0.4252 -2.25,-1.3222 z m 61.0147,0.76 c -0.4307,-0.6969 -0.9213,-22.3565 -0.6903,-30.4773 0.043,-1.5152 1.1127,-1.75 7.9731,-1.75 6.9832,0 8.2742,0.2953 10.8813,2.489 3.414,2.8727 4.3572,6.3411 3.0309,11.1447 -1.2118,4.3889 -4.1642,6.2304 -11.4364,7.1336 l -5.8991,0.7327 -0.5,5.4224 c -0.4589,4.9771 -2.0294,7.457 -3.3595,5.3049 z M 1287,1195 c 2.5063,-2.5063 2.5514,-5.191 0.124,-7.3878 -2.5207,-2.2812 -8.685,-3.2215 -10.6155,-1.6192 -1.5201,1.2615 -2.1525,9.0296 -0.8418,10.3403 1.5567,1.5568 9.3614,0.6386 11.3333,-1.3333 z m 9.6667,18.3333 C 1296.3,1212.9667 1296,1207.5699 1296,1201.3405 v -11.3261 h 3.75 c 2.0625,-7e-4 4.875,-0.1164 6.25,-0.2572 3.857,-0.3948 3.197,2.9032 -1,4.9976 -3.4805,1.7368 -3.5017,1.7879 -3.798,9.2018 -0.3306,8.2737 -2.0612,11.8522 -4.5353,9.378 z M 1313.4,1210.6 c -3.0549,-3.0549 -3.4,-3.9669 -3.4,-8.9842 0,-4.757 0.4322,-6.068 2.918,-8.85 2.5043,-2.8029 3.5784,-3.2658 7.5768,-3.2658 4.1027,0 5.0675,0.4459 8.082,3.7353 2.9645,3.2348 3.4232,4.4207 3.4232,8.85 0,4.4834 -0.4197,5.5344 -3.4,8.5147 -2.7873,2.7873 -4.1569,3.4 -7.6,3.4 -3.4431,0 -4.8127,-0.6127 -7.6,-3.4 z m 11.1455,-3.0545 c 4.6977,-4.6978 2.1565,-13.5455 -3.8905,-13.5455 -6.3886,0 -8.331,12.5762 -2.3171,15.0014 3.2068,1.2931 3.5356,1.216 6.2076,-1.4559 z m 13.3231,4.9447 c -5.7655,-3.1327 -3.598,-7.0619 2.3156,-4.1978 3.4368,1.6645 7.1232,0.9541 7.6025,-1.4652 0.1894,-0.9558 -1.8475,-2.2754 -6,-3.8871 -5.9416,-2.3062 -6.3031,-2.635 -6.5852,-5.9912 -0.408,-4.853 2.5109,-7.4489 8.3757,-7.4489 5.0411,0 9.8179,3.5049 7.6845,5.6383 -0.8807,0.8807 -1.9451,0.7805 -4.4143,-0.4153 -2.3343,-1.1306 -3.7787,-1.2949 -5.1113,-0.5817 -2.8245,1.5116 -1.5963,3.1352 3.8406,5.0773 5.5811,1.9937 7.4233,3.9542 7.4233,7.8999 0,5.7071 -8.7786,8.8234 -15.1314,5.3717 z m 47.3482,-0.051 c -7.0953,-4.9698 -6.5753,-18.1341 0.8684,-21.9834 3.5745,-1.8484 5.3216,-1.8312 9.3751,0.092 3.6145,1.7152 5.5397,5.0163 5.5397,9.4989 v 2.9529 h -7.441 c -4.0925,0 -7.6738,0.3767 -7.9583,0.837 -0.2845,0.4604 0.1939,1.8524 1.0631,3.0934 1.2844,1.8338 2.2599,2.1665 5.2083,1.7765 1.9954,-0.2639 4.6404,-0.8084 5.8779,-1.21 3.2173,-1.0441 2.971,1.7908 -0.3849,4.4305 -3.1559,2.4825 -8.9843,2.7281 -12.1483,0.5119 z m 10.3103,-14.4831 c 1.0441,-1.6894 -1.5499,-3.9562 -4.5271,-3.9562 -2.9772,0 -5.5712,2.2668 -4.5271,3.9562 0.3548,0.5741 2.392,1.0438 4.5271,1.0438 2.1351,0 4.1723,-0.4697 4.5271,-1.0438 z m 9.5406,14.1703 c -1.2235,-2.2862 -1.4306,-19.007 -0.2583,-20.8524 0.4284,-0.6742 2.109,-1.1836 3.7347,-1.1318 1.6258,0.052 3.9629,-0.2352 5.1937,-0.6376 2.9721,-0.9716 4.5076,2.3416 1.8221,3.9315 -5.4805,3.2445 -5.9275,4.0764 -6.5015,12.0989 -0.5719,7.9949 -1.9879,10.3337 -3.9907,6.5914 z m 15.599,1.2068 c -0.3667,-0.3666 -0.6667,-5.7291 -0.6667,-11.9166 0,-11.3042 0.4995,-12.8577 3.75,-11.6624 1.3168,0.4843 1.8564,19.5019 0.643,22.6639 -0.6238,1.6256 -2.5443,2.0972 -3.7263,0.9151 z m 43.7218,-0.7632 c -0.9956,-2.5946 0.3999,-4.7391 2.857,-4.3902 1.6528,0.2347 2.2545,0.9874 2.2545,2.8201 0,1.8327 -0.6017,2.5854 -2.2545,2.8201 -1.3523,0.1921 -2.4956,-0.3082 -2.857,-1.25 z m 21.1097,-0.7537 c -0.3153,-1.274 -0.4438,-8.6164 -0.2857,-16.3164 l 0.2875,-14 6.9231,-0.2996 c 10.9521,-0.4741 15.5769,2.5211 15.5769,10.0878 0,7.1566 -2.7891,9.6295 -11.9753,10.6176 l -5.5247,0.5942 -0.5,5.4913 c -0.3773,4.1438 -0.9207,5.5711 -2.2143,5.8165 -1.1094,0.2104 -1.9165,-0.4922 -2.2875,-1.9914 z m 15.5675,-15.8516 c 1.3352,-0.7145 1.9343,-2.0975 1.9343,-4.4648 0,-4.2253 -2.3597,-5.7358 -8.2882,-5.3056 -4.1041,0.2978 -4.2199,0.4042 -4.5284,4.1608 -0.1742,2.1203 -0.076,4.4828 0.2186,5.25 0.6379,1.6623 7.7795,1.9032 10.6637,0.3596 z m 11.601,17.3685 c -0.3667,-0.3666 -0.6667,-8.0166 -0.6667,-17 0,-15.3589 0.1129,-16.3333 1.893,-16.3333 1.0412,0 2.1662,0.7118 2.5,1.5818 1.1816,3.0792 0.6711,29.9541 -0.593,31.2182 -1.3595,1.3595 -2.1694,1.4973 -3.1333,0.5333 z m 9.6231,-1.2779 c -3.116,-2.9031 -3.7162,-5.7557 -1.8198,-8.6499 1.8286,-2.7909 4.227,-3.9846 9.8423,-4.8988 2.8743,-0.468 3.7298,-1.0373 3.4768,-2.3137 -0.3585,-1.8088 -5.1396,-2.1621 -9.5391,-0.705 -1.863,0.6171 -2.25,0.3784 -2.25,-1.3875 0,-2.9794 5.649,-5.5765 10.2515,-4.7131 5.752,1.0791 7.1976,3.6093 7.605,13.3104 0.2185,5.2051 -0.06,8.9057 -0.7199,9.5656 -0.592,0.592 -4.1446,1.2346 -7.8948,1.428 -5.7263,0.2954 -7.1601,0.033 -8.952,-1.636 z m 11.5969,-4.5437 c 0.7628,-0.7461 1.1144,-2.0665 0.7814,-2.9342 -0.8004,-2.0859 -7.0126,-2.0901 -9.0967,-0.01 -1.9377,1.9378 -1.9381,1.919 0.072,3.9295 1.8201,1.8201 5.8679,1.3344 8.2429,-0.9892 z m 10.5298,5.1312 c -0.3216,-0.8379 -0.6593,-6.1628 -0.7506,-11.8332 L 1543.5,1190.5 l 3.5,-0.2282 c 1.925,-0.1255 5.115,-0.5037 7.0889,-0.8406 2.9149,-0.4974 4.1307,-0.1464 6.4738,1.8691 2.7802,2.3914 2.8859,2.8102 2.9111,11.5354 0.016,5.5789 -0.4201,9.5023 -1.1367,10.222 -2.2693,2.2794 -3.3371,-0.1789 -3.3371,-7.6825 0,-8.9892 -1.0305,-11.3752 -4.9127,-11.3752 -4.2568,0 -5.5294,2.3663 -6.0873,11.3193 -0.3209,5.1495 -0.9475,8.1707 -1.7495,8.4351 -0.6872,0.2265 -1.5125,-0.2736 -1.834,-1.1115 z m 26.8335,-0.1666 c -1.9899,-1.4059 -2.25,-2.4514 -2.25,-9.0428 0,-6.2156 -0.3321,-7.7374 -2,-9.1655 -1.1,-0.9419 -2,-2.1792 -2,-2.7497 0,-0.5705 0.9,-1.5993 2,-2.2862 1.1,-0.687 2,-2.1765 2,-3.3101 0,-2.9187 4.3821,-2.2496 4.8072,0.734 0.1897,1.3309 1.2674,2.3969 2.8165,2.7857 2.992,0.7509 2.8974,3.8373 -0.1352,4.4125 -2.8161,0.5341 -3.4579,1.9532 -3.4579,7.6458 0,5.7426 0.5739,6.9508 3.7763,7.9507 3.0352,0.9476 2.4683,3.9593 -0.8155,4.3323 -1.3702,0.1556 -3.5039,-0.4324 -4.7414,-1.3067 z m 11.4275,0.8109 c -0.4296,-0.6952 -1.0428,-18.2751 -0.7686,-22.0372 0.05,-0.6875 1.0054,-1.25 2.1228,-1.25 1.9424,0 2.0194,0.5135 1.75,11.6684 -0.1866,7.7296 -0.6727,11.7982 -1.4401,12.0528 -0.6371,0.2114 -1.3859,0.016 -1.6641,-0.434 z m 9.01,0.067 c -0.3781,-0.3782 -0.6875,-5.7947 -0.6875,-12.0368 v -11.3492 l 2.75,0.083 c 1.5125,0.045 4.5812,-0.2207 6.8193,-0.5916 3.4641,-0.5739 4.5053,-0.2992 7,1.8467 2.7402,2.357 2.9516,3.0625 3.2536,10.8574 0.2346,6.0592 -0.065,8.8564 -1.0983,10.2394 -2.4703,3.3074 -3.7246,0.9408 -3.7246,-7.0276 0,-8.9892 -1.0305,-11.3752 -4.9127,-11.3752 -4.2568,0 -5.5294,2.3663 -6.0873,11.3193 -0.4567,7.3285 -1.4966,9.8508 -3.3125,8.0349 z m 61.9675,-1.1829 c -1.2324,-1.3618 -1.655,-3.7567 -1.655,-9.3781 0,-6.7139 -0.249,-7.7167 -2.25,-9.0623 l -2.25,-1.5131 2.1502,-2.3589 c 1.1826,-1.2974 2.3137,-3.2589 2.5137,-4.3589 0.4958,-2.728 3.1193,-2.531 3.791,0.2847 0.2998,1.2567 1.6701,2.8449 3.0451,3.5296 1.375,0.6846 2.5,1.8089 2.5,2.4984 0,0.6895 -1.125,1.8124 -2.5,2.4955 -2.8234,1.4025 -3.4741,4.0445 -2.5363,10.298 0.4538,3.0264 1.218,4.4754 2.59,4.9109 1.0705,0.3397 1.9463,1.4874 1.9463,2.5503 0,2.5723 -5.0465,2.6437 -7.345,0.1039 z m 11.7864,0.5367 c -0.2726,-0.7106 -0.371,-8.2481 -0.2186,-16.75 0.2636,-14.6989 0.3754,-15.458 2.2772,-15.458 1.6787,0 2.0492,0.7687 2.3062,4.7848 l 0.3062,4.7847 3.3223,-0.6232 c 4.5051,-0.8452 9.0429,1.6165 10.4569,5.6725 1.5769,4.5235 1.433,16.3669 -0.2154,17.735 -2.3875,1.9814 -3.6762,-0.8649 -3.6762,-8.1195 0,-7.751 -1.1397,-10.7343 -4.1009,-10.7343 -4.9579,0 -5.8991,1.5691 -5.8991,9.8352 0,7.2454 -0.9281,10.1648 -3.2314,10.1648 -0.4572,0 -1.0545,-0.5814 -1.3272,-1.292 z m 28.3212,-0.2734 c -8.0913,-4.3903 -7.2977,-18.8992 1.2268,-22.4302 5.328,-2.207 12.0907,1.4824 13.5778,7.4072 1.201,4.7852 0.1263,5.5884 -7.4768,5.5884 -3.8348,0 -7.2052,0.3767 -7.4897,0.837 -0.2845,0.4604 0.1645,1.8104 0.9977,3 1.6833,2.4032 4.9749,2.7702 8.8817,0.9901 1.9998,-0.9112 2.847,-0.8956 3.797,0.07 0.9671,0.9825 0.6359,1.7509 -1.5829,3.6729 -3.2202,2.7894 -7.7762,3.1197 -11.9316,0.865 z m 8.7645,-14.4784 c 0.968,-1.5663 -1.4647,-3.9562 -4.0271,-3.9562 -2.5624,0 -4.9951,2.3899 -4.0271,3.9562 0.3548,0.5741 2.167,1.0438 4.0271,1.0438 1.8601,0 3.6723,-0.4697 4.0271,-1.0438 z m 21.942,14.8238 c -0.2887,-0.7523 -0.3999,-8.0981 -0.247,-16.3239 l 0.2779,-14.9561 h 10.5 c 9.8333,0 10.5,0.127 10.5,2 0,1.7917 -0.8333,2.0521 -8,2.5 l -8,0.5 v 4 4 l 7,0.5 c 6.1667,0.4405 7,0.7381 7,2.5 0,1.7619 -0.8333,2.0595 -7,2.5 l -7,0.5 -0.5,6.491 c -0.3968,5.1516 -0.8618,6.5597 -2.253,6.8239 -0.9642,0.1831 -1.9892,-0.2826 -2.2779,-1.0349 z m 26.5828,-1.2247 c -1.9451,-2.0705 -2.3632,-3.7929 -2.7311,-11.25 -0.4514,-9.1509 0.3549,-12.0275 3.0783,-10.9824 1.2178,0.4673 1.6009,2.0276 1.6009,6.5207 0,11.8676 2.4827,16.0358 7.5671,12.7044 2.2354,-1.4647 2.4329,-2.2317 2.4329,-9.4486 0,-5.6568 0.4074,-8.1927 1.4562,-9.063 2.8286,-2.3476 3.5438,-0.05 3.5438,11.3833 v 11.3017 l -5.25,0.6306 c -8.1686,0.9812 -9.2435,0.8161 -11.6981,-1.7967 z m 24.647,0.6645 c -1.2863,-1.4214 -1.6989,-3.7317 -1.6989,-9.5134 0,-6.6126 -0.2681,-7.7795 -2,-8.7064 -2.5348,-1.3566 -2.5667,-3.6263 -0.07,-4.9626 1.0616,-0.5682 2.0741,-2.0113 2.25,-3.2069 0.4916,-3.3419 2.7789,-3.3991 4.0239,-0.1007 0.6082,1.6112 2.0485,3.3435 3.2008,3.8498 2.7736,1.2185 2.6779,3.8376 -0.1549,4.24 -2.0994,0.2981 -2.25,0.8097 -2.25,7.6415 0,7.0268 0.1035,7.3481 2.5664,7.9662 3.6382,0.9131 2.8481,3.9814 -1.1257,4.3712 -1.9956,0.1958 -3.6276,-0.3475 -4.7418,-1.5787 z m 13.7331,-0.6968 c -2.2363,-2.2364 -2.432,-3.2002 -2.432,-11.9775 0,-8.8788 0.1397,-9.5455 2,-9.5455 1.8077,0 2,0.6667 2,6.9349 0,9.2843 1.1185,12.0651 4.8528,12.0651 4.1892,0 5.0202,-1.6378 5.3515,-10.5474 0.2758,-7.4161 0.4497,-7.9744 2.5781,-8.2764 2.2784,-0.3232 2.2819,-0.3036 2,11.3843 l -0.2824,11.7082 -6.818,0.3431 c -6.1313,0.3086 -7.0628,0.098 -9.25,-2.0888 z m 21.5995,0.5359 c -0.6531,-1.2204 -0.987,-6.0433 -0.8177,-11.8108 l 0.2862,-9.7481 3,-0.2701 c 8.5677,-0.7713 8.9448,-0.7315 9.288,0.9793 0.2342,1.1672 -0.769,2.1738 -3.163,3.1741 -3.8294,1.6 -4.3995,3.1831 -4.8757,13.5381 -0.2659,5.7813 -1.8779,7.5753 -3.7178,4.1375 z m 18.7242,0.1863 c -5.2718,-3.2686 -7.2704,-11.4154 -4.2388,-17.2779 1.616,-3.125 6.0868,-5.9673 9.3864,-5.9673 5.4042,0 10.0967,5.0678 10.0967,10.9043 v 3.0957 h -7.0314 c -7.4898,0 -9.5573,1.3808 -6.8862,4.5992 1.3152,1.5848 5.5951,1.5438 10.6676,-0.1023 1.8415,-0.5976 2.25,-0.3561 2.25,1.3298 0,4.6971 -8.7827,6.8049 -14.2443,3.4185 z m 9.5424,-13.8767 c 1.4016,-1.4015 -1.4583,-4.3685 -4.2108,-4.3685 -3.0501,0 -5.6708,2.2469 -4.6144,3.9562 0.6946,1.1238 7.7826,1.455 8.8252,0.4123 z m 10.8535,14.7604 c -2.2312,-1.4372 -0.9472,-4.6289 1.8621,-4.6289 1.9817,0 2.4863,0.5046 2.4863,2.4863 0,2.6256 -2.0389,3.6303 -4.3484,2.1426 z M 890.01057,1184.5127 C 888.34897,1182.5106 889.45578,1180 892,1180 c 1.13452,0 2.32399,0.6807 2.64326,1.5127 0.57462,1.4975 -1.18656,4.4873 -2.64326,4.4873 -0.41531,0 -1.31055,-0.6693 -1.98943,-1.4873 z m 310.94773,-0.063 c -1.0604,-1.2777 -1.0077,-1.829 0.3001,-3.1367 0.8726,-0.8726 2.2964,-1.3142 3.1641,-0.9812 2.044,0.7844 2.0411,4.2762 0,5.0611 -2.0934,0.8033 -1.9861,0.8325 -3.4599,-0.9432 z m 220.2917,0.8879 c -1.7817,-0.7189 -1.5483,-4.286 0.3275,-5.0058 0.8677,-0.333 2.2915,0.1086 3.1641,0.9812 1.3078,1.3077 1.3605,1.859 0.3001,3.1367 -1.3461,1.6219 -1.7426,1.7148 -3.7917,0.8879 z m 160.0819,-0.9152 c -0.333,-0.8677 0.1311,-2.3141 1.0314,-3.2143 1.5156,-1.5157 1.7598,-1.5137 3.3008,0.027 1.3747,1.3747 1.4403,1.9337 0.3776,3.2143 -1.6583,1.9981 -3.9377,1.9849 -4.7098,-0.027 z m -562.6824,-0.8936 c -0.7309,-1.9047 1.9747,-4.6103 3.8794,-3.8794 0.8091,0.3105 1.4711,1.6413 1.4711,2.9575 0,1.8573 -0.5357,2.393 -2.393,2.393 -1.3162,0 -2.647,-0.662 -2.9575,-1.4711 z M 1236.5,1140.5943 c -7.9868,-1.9738 -18.5,-8.1921 -18.5,-10.9422 0,-0.6854 1.782,-2.9862 3.9599,-5.1129 l 3.9599,-3.8668 3.9428,2.7324 c 10.5985,7.3447 25.9216,7.2875 27.7767,-0.1037 1.2802,-5.1008 -1.2582,-7.5184 -11.1495,-10.6195 -18.735,-5.8736 -22.4758,-8.0104 -25.1258,-14.3528 -1.7457,-4.1782 -1.7516,-12.4706 -0.012,-16.6109 5.2272,-12.4392 23.7644,-16.4891 39.3656,-8.6004 8.7792,4.4391 9.3641,5.5414 5.6929,10.7278 -1.6009,2.2616 -3.3055,4.1216 -3.788,4.1333 -0.4825,0.012 -3.7314,-1.3837 -7.2197,-3.101 -5.5527,-2.7336 -7.1119,-3.0667 -12.5215,-2.6754 -4.9047,0.3548 -6.5607,0.9184 -8.0302,2.7332 -4.6269,5.7139 -0.6936,9.7479 13.3206,13.6618 13.1567,3.6745 19.6212,7.501 22.5781,13.3647 9.2619,18.3668 -10.1439,34.5897 -34.25,28.6324 z m -441.26334,-0.3673 c -0.9854,-0.672 -1.20541,-8.4371 -1,-35.2943 L 794.5,1070.5 h 24.5 24.5 v 6 6 l -17.5,0.5 -17.5,0.5 v 8 8 l 16.5,0.5 16.5,0.5 v 5.5 5.5 l -16.5,0.5878 c -9.075,0.3233 -16.6125,0.6608 -16.75,0.75 -0.1375,0.089 -0.25689,5.6747 -0.26531,12.4122 -0.008,6.7375 -0.41046,12.8739 -0.89341,13.6366 -1.0155,1.6035 -9.98207,2.6173 -11.85462,1.3404 z m 45.27267,-0.2119 c -0.33479,-0.5417 1.04494,-4.7042 3.06607,-9.25 2.02112,-4.5458 8.73952,-19.9651 14.92979,-34.2651 l 11.25503,-26 6.46363,-0.2921 6.46363,-0.2922 11.30351,26.2922 c 6.21693,14.4606 12.81225,29.618 14.65626,33.6829 3.78875,8.352 4.00667,9.6443 1.77096,10.5022 -2.08978,0.8019 -8.8133,0.7764 -10.94493,-0.042 -0.92966,-0.3568 -3.01878,-3.6096 -4.64248,-7.2285 -1.62371,-3.6189 -3.48738,-6.9202 -4.14149,-7.3361 -0.65412,-0.4159 -7.59266,-0.7631 -15.41899,-0.7715 l -14.22967,-0.015 -1.89202,3.75 c -1.0406,2.0625 -2.22797,4.875 -2.6386,6.25 -1.42595,4.7749 -3.38738,6 -9.606,6 -3.1823,0 -6.05991,-0.4432 -6.3947,-0.9849 z m 44.45558,-29.7651 c -0.0642,-3.2007 -7.4613,-19.75 -8.82774,-19.75 -1.29285,0 -9.13717,17.2696 -9.13717,20.1159 0,1.0763 2.00153,1.3841 9,1.3841 7.91813,0 8.99578,-0.2104 8.96491,-1.75 z M 924.2,1139.8 c -0.88511,-0.8851 -1.2,-9.9061 -1.2,-34.3776 0,-28.1437 0.22563,-33.3648 1.48715,-34.4117 1.09939,-0.9124 6.11855,-1.1279 19.25,-0.8264 15.76119,0.3619 18.32489,0.6617 22.75039,2.6606 9.49152,4.2872 13.46854,10.3862 13.46854,20.6551 0,7.797 -2.47904,13.1658 -8.34234,18.0669 -2.53756,2.1211 -4.61374,4.1933 -4.61374,4.6048 0,0.4115 3.19905,5.4889 7.109,11.283 4.23521,6.2761 6.87551,11.1433 6.53139,12.0401 -0.41656,1.0855 -2.09718,1.5052 -6.02722,1.5052 -2.99728,0 -6.19135,-0.2846 -7.09793,-0.6325 -0.90659,-0.3479 -4.76752,-5.2816 -8.57986,-10.9638 -3.81233,-5.6822 -7.8028,-10.7976 -8.8677,-11.3675 -2.49045,-1.3328 -8.64384,-1.3334 -11.13342,-10e-4 -1.72122,0.9212 -1.93426,2.176 -1.93426,11.393 0,8.5225 -0.28028,10.4654 -1.58179,10.9648 -2.7235,1.0451 -9.96277,0.6624 -11.21821,-0.593 z m 33.6608,-35.4222 c 8.12347,-1.6247 10.95934,-11.1892 5.22193,-17.612 -2.83084,-3.169 -3.18728,-3.2762 -12.0309,-3.6165 C 936.60152,1082.5934 937,1082.305 937,1093.3191 c 0,5.8851 0.43906,9.72 1.2,10.4809 1.28184,1.2818 14.23701,1.6626 19.6608,0.5778 z m 38.42136,35.8177 c -0.91427,-0.5809 -1.24373,-9.1719 -1.32171,-34.4641 -0.0571,-18.5297 0.17997,-34.1496 0.52686,-34.7109 0.3469,-0.5613 3.75976,-1.0205 7.58409,-1.0205 h 6.9534 l 3.3541,5.25 c 1.8448,2.8875 5.7157,9.525 8.6022,14.75 6.7803,12.2735 6.9586,12.4889 8.808,10.6394 0.8035,-0.8035 5.3634,-7.9135 10.133,-15.8001 l 8.672,-14.3393 6.7929,-0.2977 c 4.1464,-0.1818 7.3424,0.1581 8.203,0.8724 1.9103,1.5854 2.1096,66.8257 0.21,68.7253 -1.472,1.472 -9.2221,1.5797 -11.8657,0.1648 -1.816,-0.9719 -1.9343,-2.2914 -1.9343,-21.5833 0,-21.4981 -0.287,-22.7094 -4.1036,-17.3184 -0.9488,1.3403 -4.942,7.4744 -8.8737,13.6314 -4.152,6.502 -7.6461,10.9851 -8.3356,10.695 -0.6529,-0.2748 -4.555,-5.8679 -8.6713,-12.4293 -9.7973,-15.6168 -10.7571,-16.8355 -11.8883,-15.0955 -0.488,0.7506 -0.6488,10.1572 -0.3572,20.9036 0.4931,18.1719 0.4013,19.633 -1.3112,20.8853 -1.9877,1.4534 -9.19263,1.8028 -11.17694,0.5419 z m 88.93484,-0.3785 c -1.7336,-1.7336 -1.7497,-66.8843 -0.017,-68.617 0.8658,-0.8658 7.795,-1.2 24.8776,-1.2 26.8342,0 26.2313,-0.1798 25.7304,7.6723 l -0.308,4.8277 -17.4269,0.2744 c -10.7828,0.1697 -17.9313,0.693 -18.75,1.3724 -1.7762,1.4741 -1.7787,12.2302 0,13.7037 0.7956,0.6603 7.4496,1.2055 16.75,1.3725 l 15.4301,0.277 v 5.5 5.5 l -15.4301,0.277 c -9.3004,0.167 -15.9544,0.7122 -16.75,1.3725 -1.4437,1.1981 -1.8308,11.498 -0.5103,13.5766 0.5566,0.8761 5.9036,1.3043 18.7346,1.5 l 17.9558,0.2739 v 6.5 6.5 l -24.533,0.267 c -18.242,0.1985 -24.8451,-0.045 -25.75,-0.95 z m 66.533,0.1029 c -1.6113,-0.9385 -1.75,-3.6613 -1.75,-34.3471 0,-28.6419 0.2143,-33.5058 1.5244,-34.593 1.1577,-0.9608 5.8434,-1.1414 19.4784,-0.7504 16.9489,0.4859 18.2635,0.6662 23.4839,3.2203 5.8532,2.8637 9.5032,6.8584 11.3752,12.4495 3.038,9.0739 -0.4027,20.5201 -7.7265,25.704 -2.251,1.5932 -4.1023,3.4915 -4.114,4.2184 -0.012,0.7269 3.1901,5.9795 7.1153,11.6725 4.5038,6.5321 6.9134,10.9329 6.5314,11.9284 -0.4634,1.2078 -2.0953,1.5775 -6.9624,1.5775 -7.4343,0 -7.7257,-0.2324 -15.6741,-12.5 -7.2998,-11.2667 -7.5657,-11.5 -13.1048,-11.5 -8.037,0 -7.9268,-0.1669 -7.9268,12 0,8.913 -0.2747,10.8914 -1.5818,11.393 -2.4466,0.9389 -8.7218,0.6606 -10.6682,-0.4731 z m 38.4154,-38.7789 c 5.1131,-5.7227 3.2987,-13.7957 -3.764,-16.7466 -4.1869,-1.7494 -19.5059,-1.8899 -21.2014,-0.1944 -1.6576,1.6576 -1.6162,17.9683 0.05,19.6966 0.9242,0.9587 3.9647,1.182 11.6654,0.8568 10.2047,-0.431 10.4726,-0.5041 13.25,-3.6124 z m 131.0846,39.1967 c -0.9659,-0.3897 -1.25,-8.302 -1.25,-34.814 0,-30.3635 0.1819,-34.3795 1.5818,-34.9167 2.7235,-1.0451 9.9628,-0.6624 11.2182,0.593 0.8852,0.8852 1.2,9.9255 1.2,34.4648 0,31.8645 -0.081,33.3084 -1.9343,34.3 -1.9738,1.0564 -8.5592,1.2834 -10.8157,0.3729 z m 32.95,-0.5377 c -1.7181,-1.7181 -1.7181,-66.8819 0,-68.6 0.66,-0.66 3.3408,-1.2 5.9574,-1.2 4.1789,0 5.0665,0.3951 7.3004,3.25 1.3987,1.7875 8.7304,11.3288 16.2927,21.2028 7.5622,9.8741 14.1995,17.8623 14.7495,17.7515 0.6161,-0.1241 1.1042,-7.9576 1.2714,-20.407 0.1965,-14.6348 0.6101,-20.4209 1.5,-20.9862 1.9242,-1.2224 10.1964,-0.9433 11.5286,0.3889 1.7181,1.7181 1.7181,66.8819 0,68.6 -1.3117,1.3117 -8.6027,1.6131 -10.4585,0.4322 -0.6371,-0.4054 -5.5967,-6.586 -11.0212,-13.7346 -17.9061,-23.5973 -21.8069,-28.4083 -23.0703,-28.4532 -0.9615,-0.034 -1.25,4.7772 -1.25,20.8486 0,18.1292 -0.2092,20.9733 -1.5818,21.5 -2.7235,1.0451 -9.9628,0.6624 -11.2182,-0.593 z m 80,0 c -1.7181,-1.7181 -1.7181,-66.8819 0,-68.6 1.2554,-1.2554 8.4947,-1.6381 11.2182,-0.593 1.3998,0.5372 1.5818,4.5511 1.5818,34.893 0,30.3419 -0.182,34.3558 -1.5818,34.893 -2.7235,1.0451 -9.9628,0.6624 -11.2182,-0.593 z m 49.05,0.5377 c -0.9573,-0.3863 -1.25,-6.9163 -1.25,-27.8858 0,-31.9667 1.0658,-29.4519 -12.482,-29.4519 h -8.6134 l 0.2977,-6.25 0.2977,-6.25 h 27.5 27.5 l 0.2977,6.25 0.2977,6.25 h -8.9659 c -4.9313,0 -9.6777,0.2731 -10.5477,0.607 -1.3887,0.5329 -1.5818,3.926 -1.5818,27.8 0,19.8168 -0.3255,27.5185 -1.2,28.393 -1.1725,1.1725 -9.066,1.54 -11.55,0.5377 z m 48.9927,-0.495 c -1.757,-1.757 -1.7975,-66.8879 -0.043,-68.6427 1.6587,-1.6587 10.2776,-1.5343 11.691,0.1687 0.8104,0.9764 1.0604,11.0785 0.8725,35.25 l -0.2635,33.8813 -5.5073,0.2927 c -3.4207,0.1817 -5.9782,-0.1782 -6.75,-0.95 z m 26.4864,-0.093 c -1.4994,-1.1337 -1.1073,-2.506 4.2149,-14.75 3.2275,-7.425 9.8712,-22.725 14.7638,-34 l 8.8955,-20.5 h 6.41 c 7.593,0 5.8944,-2.3653 16.8766,23.5 4.3203,10.175 10.4755,24.494 13.6782,31.8201 6.5125,14.897 6.4867,15.1373 -1.627,15.1646 -5.8019,0.02 -7.3357,-1.2086 -9.9695,-7.9822 -1.1756,-3.0236 -2.6053,-6.0611 -3.177,-6.75 -0.7478,-0.901 -5.2305,-1.2525 -15.9739,-1.2525 h -14.9345 l -3.3534,7.3586 c -1.8444,4.0472 -4.1056,7.6472 -5.0249,8 -2.7902,1.0707 -9.0233,0.7188 -10.7788,-0.6086 z M 1602,1110.1938 c 0,-3.0218 -7.521,-19.6938 -8.8841,-19.6938 -1.3335,0 -9.0162,16.7117 -9.0795,19.75 -0.032,1.5397 1.045,1.75 8.9636,1.75 8.0115,0 9,-0.1984 9,-1.8062 z m 47.2,29.6062 c -0.8745,-0.8745 -1.2,-8.5762 -1.2,-28.393 0,-23.874 -0.1931,-27.2671 -1.5818,-27.8 -0.87,-0.3339 -5.595,-0.607 -10.5,-0.607 H 1627 v -5.893 c 0,-4.4512 0.387,-6.0415 1.5818,-6.5 0.87,-0.3339 13.1899,-0.607 27.3775,-0.607 29.1894,0 28.3528,-0.2305 27.8487,7.6723 l -0.308,4.8277 -10.5,0.6275 c -5.775,0.3451 -10.6125,0.6826 -10.75,0.75 -0.1375,0.067 -0.25,12.4817 -0.25,27.5873 0,26.1302 -0.094,27.5151 -1.9343,28.5 -2.6351,1.4103 -9.3931,1.3078 -10.8657,-0.1648 z m 103.0247,-0.05 c -1.8504,-2.2673 -27.309,-66.0731 -27.0039,-67.6788 0.3948,-2.0773 11.023,-2.7973 12.8219,-0.8686 0.6656,0.7136 5.338,11.6474 10.3831,24.2974 5.0451,12.65 9.5672,23 10.0491,23 0.9592,0 1.3585,-0.955 11.0802,-26.5 3.663,-9.625 7.297,-18.5125 8.0755,-19.75 1.2121,-1.9266 2.279,-2.25 7.4238,-2.25 4.2003,0 6.1685,0.4173 6.5405,1.3868 0.5067,1.3204 -24.8057,65.7485 -26.8584,68.3632 -0.5629,0.7169 -3.2225,1.25 -6.2365,1.25 -2.9933,0 -5.6942,-0.538 -6.2753,-1.25 z m 52.9753,0.05 c -1.7181,-1.7181 -1.7181,-66.8819 0,-68.6 1.4042,-1.4042 46.4331,-1.7192 48.6076,-0.34 0.8824,0.5595 1.2076,2.5874 1,6.2346 l -0.3076,5.4054 -18,0.5 -18,0.5 v 7.5 7.5 l 15.4301,0.277 c 9.3004,0.167 15.9544,0.7122 16.75,1.3725 0.7259,0.6024 1.3199,2.5785 1.3199,4.3912 0,6.5836 0.3172,6.4593 -16.4845,6.4593 -11.9345,0 -15.5267,0.3086 -16.443,1.4127 -0.7052,0.8496 -1.0529,3.9386 -0.8725,7.75 l 0.3,6.3373 17.4269,0.2744 c 10.7828,0.1697 17.9313,0.693 18.75,1.3724 1.66,1.3777 1.7513,10.025 0.1231,11.6532 -0.8655,0.8655 -7.7778,1.2 -24.8,1.2 -17.0222,0 -23.9345,-0.3345 -24.8,-1.2 z m -107.5333,-0.4667 C 1697.3,1138.9667 1697,1123.9238 1697,1105.9048 c 0,-36.6759 -0.1501,-35.9048 6.9896,-35.9048 7.5309,0 7.0104,-2.6437 7.0104,35.607 V 1140 h -6.3333 c -3.4834,0 -6.6334,-0.3 -7,-0.6667 z M 829.5,1027.11 c -28.14673,-8.1976 -44.96773,-35.13623 -40.46949,-64.8113 4.63935,-30.60594 27.69745,-50.23006 59.083,-50.28392 10.02698,-0.0172 16.19291,1.00549 24.2603,4.02389 7.48353,2.79995 18.03951,10.00425 18.41882,12.57057 0.26425,1.78791 -8.19793,14.28715 -10.7336,15.85428 -0.54059,0.3341 -3.40292,-0.99935 -6.36073,-2.96322 -27.09233,-17.98829 -57.78555,-5.36778 -61.24182,25.18155 -1.34369,11.8767 3.8296,25.87905 12.32356,33.35575 11.60848,10.2182 29.51821,10.6529 44.96817,1.0915 l 4.24821,-2.6291 0.002,-7.21922 0.002,-7.21922 -12.25,-0.28078 -12.25,-0.28078 v -10 -10 l 21,-0.28298 c 11.55,-0.15564 22.0125,-0.0346 23.25,0.26905 l 2.25,0.55203 v 30.87396 c 0,23.81494 -0.2858,30.96724 -1.25,31.28184 -0.6875,0.2244 -4.625,0.16 -8.75,-0.143 -7.28191,-0.5349 -7.5092,-0.6309 -7.81642,-3.3009 -0.17403,-1.5125 -0.49808,-2.75 -0.72009,-2.75 -0.22202,0 -3.03107,1.3351 -6.24233,2.967 -11.79284,5.9927 -29.37546,7.7387 -41.72116,4.143 z m 92.61384,-1.4728 c -0.81816,-0.9859 -1.05951,-16.5464 -0.87244,-56.25003 L 921.5,914.5 950,914.23253 c 16.93539,-0.15893 30.52888,0.1536 33.5,0.77022 12.50063,2.59434 22.3843,9.98095 27.0952,20.24977 2.5081,5.46705 2.8686,7.43421 2.8855,15.74748 0.017,8.57789 -0.2813,10.13092 -3.0781,16 -3.5324,7.41281 -9.4662,13.97148 -15.36134,16.97895 -2.22269,1.13393 -4.04126,2.27254 -4.04126,2.53023 0,0.25769 5.64275,9.0378 12.5394,19.51132 6.8967,10.4736 12.2702,19.4786 11.941,20.0112 -0.3314,0.5363 -5.8863,0.9683 -12.4505,0.9683 h -11.85211 l -2.54789,-3.028 c -1.40135,-1.6654 -7.17885,-9.9901 -12.8389,-18.4994 l -10.291,-15.47135 -10.18261,-6.2e-4 c -8.86804,-5.5e-4 -10.23797,0.2253 -10.61137,1.74937 -0.23581,0.9625 -0.51685,8.9393 -0.62454,17.7263 -0.13594,11.0933 -0.56037,16.2081 -1.38863,16.7347 -2.19838,1.3977 -19.33949,0.9197 -20.57901,-0.5738 z m 56.80289,-57.61332 c 6.9255,-1.98621 11.36898,-8.49424 11.36898,-16.65129 0,-6.27994 -2.86443,-11.47257 -7.55147,-13.68928 -4.63552,-2.19235 -36.61276,-2.71042 -37.68542,-0.61056 -0.69641,1.3633 -0.73841,5.16732 -0.26142,23.67725 L 945,969 h 15.2566 c 8.39113,0 16.78819,-0.43925 18.66013,-0.97612 z m 58.63557,57.73712 c -0.2164,-0.6936 -0.6814,-25.5958 -1.0335,-55.33825 -0.5464,-46.16829 -0.4314,-54.25042 0.7867,-55.26133 1.0594,-0.87918 11.9542,-1.11679 42.3106,-0.92275 L 1120.5,914.5 l 0.285,10.25 0.285,10.25 h -29.4532 c -16.1993,0 -30.165,0.27314 -31.035,0.60699 -1.3143,0.50435 -1.5818,2.53355 -1.5818,12 V 959 h 26.4286 c 22.6926,0 26.6507,0.22214 28,1.57143 2.0614,2.06138 2.2519,16.61893 0.2393,18.28919 -0.8796,0.73005 -10.3044,1.19618 -27.75,1.37245 L 1059.5,980.5 v 12.5 12.5 l 31,0.5 31,0.5 v 10 10 l -41.7772,0.261 c -32.9237,0.2057 -41.8605,-0.01 -42.1705,-1 z m 107.9108,10e-5 c -0.2655,-0.6936 -0.3657,-26.0111 -0.2229,-56.2611 l 0.2598,-55 h 41.5 41.5 v 10 10 l -30.5,0.5 -30.5,0.5 v 11.5 11.5 l 27,0.5 27,0.5 v 10 10 l -27,0.5 -27,0.5 v 12.5 12.5 l 30,0.2566 c 23.6462,0.2022 30.2118,0.5398 31,1.5938 0.5853,0.7827 0.7926,5.0307 0.5,10.2434 l -0.5,8.9062 -41.2771,0.2611 c -32.4866,0.2055 -41.3799,-0.01 -41.7598,-1 z m 106.7783,0.4093 c -0.9918,-0.6297 -1.2037,-12.5486 -1,-56.2347 L 1251.5,914.5 l 10,-0.25301 10,-0.25301 27,34.96243 c 14.85,19.22934 27.3375,34.9807 27.75,35.00301 0.4125,0.0223 0.75,-14.839 0.75,-33.02516 0,-20.88071 0.3815,-33.77854 1.0352,-35 0.916,-1.71153 2.1703,-1.93426 10.893,-1.93426 8.0666,0 9.9681,0.28743 10.4648,1.58179 0.3339,0.86998 0.607,26.06141 0.607,55.98095 v 54.39916 l -2.5144,0.6311 c -4.6453,1.1659 -16.3356,-0.015 -17.7156,-1.7889 -3.8642,-4.9679 -32.0559,-41.47805 -42.1245,-54.5541 -6.4585,-8.3875 -12.1708,-15.25 -12.6941,-15.25 -0.5836,0 -0.9514,13.4517 -0.9514,34.8 0,25.7333 -0.3126,35.1126 -1.2,36 -1.3615,1.3615 -18.5107,1.6705 -20.5586,0.3704 z m 127.6564,-0.2347 c -0.5405,-0.3334 -0.8091,-23.2491 -0.6564,-56 L 1379.5,914.5 1405,914.23167 c 15.0725,-0.15861 27.5712,0.16137 30.565,0.78249 12.4224,2.57725 23.9057,11.27032 28.7557,21.76861 1.8211,3.94185 2.1793,6.52533 2.1793,15.71723 0,9.79533 -0.2886,11.61548 -2.6352,16.62001 -4.7341,10.0965 -12.788,17.12126 -23.6248,20.60594 -3.0306,0.97453 -10.8707,1.74958 -21.74,2.14913 l -17,0.62492 -0.2742,16.75 c -0.2016,12.3194 -0.5984,16.7846 -1.5,16.8807 -3.9909,0.4257 -19.0619,0.2775 -19.828,-0.195 z M 1433.5,969.79328 c 1.65,-0.8881 4.2089,-2.8924 5.6864,-4.454 9.1858,-9.70858 4.825,-25.74246 -7.9675,-29.29527 -2.0454,-0.56807 -9.4261,-1.03537 -16.4015,-1.03843 -11.9272,-0.005 -12.7215,0.11704 -13.336,2.053 -0.7138,2.24907 -0.4572,27.69289 0.3258,32.29884 l 0.4858,2.85741 14.1035,-0.40341 c 10.4669,-0.29939 14.8771,-0.81977 17.1035,-2.01814 z m 119.4446,53.28742 c -1.7323,-2.1556 -7.2889,-10.3681 -12.348,-18.25 L 1531.3982,990.5 H 1520.9491 1510.5 l -0.5,17.5 -0.5,17.5 -11.2584,0.2828 -11.2584,0.2829 0.2584,-55.78287 L 1487.5,914.5 1516,914.21922 c 23.8385,-0.23486 29.6193,-0.009 35.3434,1.38061 12.7482,3.0949 22.8712,12.45088 26.3245,24.32972 2.0772,7.14523 1.3448,19.707 -1.535,26.3294 -2.459,5.65463 -9.9335,13.93897 -15.2952,16.95244 -2.1107,1.18629 -3.8377,2.88648 -3.8377,3.77819 0,0.89172 5.4095,9.83649 12.0211,19.87722 6.6116,10.0408 11.76,18.6784 11.441,19.1946 -0.3191,0.5162 -5.9324,0.9386 -12.474,0.9386 h -11.8939 z M 1547.8191,966.5 c 10.3068,-6.2107 10.3909,-22.94566 0.1455,-28.96462 C 1544.8471,935.70389 1542.7971,935.5 1527.5,935.5 h -17 l -0.2772,15.45801 c -0.1524,8.50191 -0.04,16.07733 0.251,16.83428 0.4265,1.11139 3.7515,1.31192 17.2772,1.04198 14.6088,-0.29156 17.1731,-0.58984 20.0681,-2.33427 z m 55.4223,59.6704 c -0.9918,-0.6297 -1.2037,-12.5486 -1,-56.2347 L 1602.5,914.5 l 10.4182,-0.28684 c 7.6614,-0.21094 10.6343,0.0537 11.2347,1 0.4491,0.70776 0.8234,25.68351 0.8318,55.50166 0.015,52.58538 -0.043,54.24588 -1.919,55.24998 -2.2637,1.2115 -17.9829,1.3745 -19.8243,0.2056 z m 200.8916,-0.5102 c -0.7702,-0.928 -1.192,-14.9902 -1.3725,-45.74999 L 1802.5,935.5 l -16.2371,-0.27471 c -18.8817,-0.31945 -17.5562,0.66955 -17.0594,-12.72865 L 1769.5,914.5 h 45.5 45.5 v 10 10 l -16.4569,0.27576 c -11.6307,0.19489 -16.685,0.63479 -17.2347,1.5 -0.4278,0.67333 -0.7847,21.0886 -0.7931,45.36725 -0.014,39.32109 -0.1881,44.20929 -1.5971,44.74999 -3.2158,1.234 -19.13,0.6591 -20.2852,-0.7328 z m -150.3097,-1.3334 c -0.1778,-0.9203 -0.2032,-26.12028 -0.056,-56.00001 L 1654.0337,914 h 9.9226 9.9227 l 14.3589,18.25 c 7.8975,10.0375 19.9213,25.5625 26.7196,34.5 6.7983,8.9375 12.7331,16.25 13.1884,16.25 0.4553,0 0.9463,-15.4125 1.091,-34.25 l 0.2631,-34.25 10.0999,-0.28333 c 7.6938,-0.21583 10.3759,0.0493 11.2587,1.11292 0.8542,1.02924 1.0908,15.69234 0.9001,55.78333 L 1751.5,1025.5 l -9.043,0.2848 c -8.333,0.2624 -9.207,0.1054 -11.1313,-2 -1.1485,-1.2566 -9.2498,-11.7348 -18.0029,-23.2848 -27.6732,-36.51579 -35.5725,-46.4637 -36.4598,-45.91535 -0.4746,0.29336 -0.863,16.48183 -0.863,35.97437 V 1026 h -10.9267 c -9.4198,0 -10.9712,-0.2307 -11.25,-1.6732 z M 807.2,882.8 c -0.8598,-0.8598 -1.2,-7.36879 -1.2,-22.95956 V 838.08088 L 797.75,837.79044 789.5,837.5 v -5 -5 h 22.5 22.5 v 5 5 l -8,0.5 -8,0.5 -0.26055,21.5 c -0.22762,18.7829 -0.47293,21.65797 -1.94113,22.75 -2.13665,1.58922 -7.52947,1.61885 -9.09832,0.05 z m 38.0336,0.40255 c -0.98169,-0.65181 -1.20651,-7.0079 -1,-28.2717 L 844.5,827.5 l 3.38837,-0.32368 c 1.86361,-0.17802 4.45111,-0.057 5.75,0.26905 C 855.94118,828.02334 856,828.3116 856,839.01905 V 850 h 11.5 11.5 v -10.37756 c 0,-11.95772 0.5498,-12.91032 7.1761,-12.43355 L 890.5,827.5 l 0.26657,26.87757 c 0.18837,18.9927 -0.0676,27.28018 -0.87244,28.25 -1.34479,1.62037 -6.21949,1.80385 -8.95987,0.33725 C 879.21108,882.0426 879,880.78762 879,871.46482 V 861 H 867.5 856 v 10.44098 c 0,6.75611 -0.40361,10.69043 -1.14362,11.14778 -1.82176,1.12591 -8.23535,1.535 -9.62278,0.61379 z M 904.23415,855.27034 904.5,827.5 h 20.5 20.5 v 5 5 l -14.5,0.5 -14.5,0.5 v 5.5 5.5 l 13,0.5 13,0.5 v 4.5 4.5 l -13,0.5 -13,0.5 -0.30765,5.40535 c -0.20693,3.63582 0.12044,5.68779 1,6.2681 0.71921,0.47451 7.06611,0.78556 14.10422,0.69122 7.61701,-0.1021 13.2101,0.242 13.81823,0.85013 0.5619,0.5619 0.87844,2.76844 0.70342,4.90342 L 945.5,882.5 l -20.76585,0.27034 -20.76586,0.27033 z"
         id="path26" />
      <path
         style="fill:#20233e"
         d="m 413,1286.5161 c -43.33282,-5.4155 -88.88957,-24.6059 -122.48993,-51.5976 -17.97761,-14.4418 -38.88903,-36.6497 -51.71231,-54.9185 -23.9482,-34.118 -38.8374,-75.2266 -42.86986,-118.3622 -1.49696,-16.0131 -0.72059,-46.1543 1.57478,-61.1378 10.52614,-68.71142 50.45931,-131.10053 108.99732,-170.29063 21.42655,-14.34467 50.01189,-26.85531 77.14739,-33.76428 21.4405,-5.45896 33.76302,-6.87664 59.85261,-6.88591 23.12962,-0.008 28.59587,0.49888 49.5,4.59204 63.80233,12.49289 122.35671,52.9178 158.47507,109.40841 24.93918,39.0059 37.56195,79.8822 39.1997,126.94037 2.08947,60.0374 -17.42315,119.2471 -54.37592,165 -9.31535,11.5338 -28.1931,30.2586 -39.79885,39.4764 -26.92595,21.3859 -60.40485,37.8019 -93.61647,45.9038 -16.48862,4.0224 -28.84054,6.0683 -38.46182,6.3708 L 456.5,1287.5 v -9 -9 l 8.32451,-0.6899 c 36.43656,-3.0199 78.28723,-18.571 109.17549,-40.5682 34.71713,-24.7239 62.97882,-59.2678 78.84935,-96.3765 21.43861,-50.128 25.21906,-100.0995 11.61294,-153.50444 -3.93284,-15.43669 -8.23296,-26.95665 -15.37253,-41.18286 -24.39893,-48.61695 -57.86469,-82.1571 -105.36697,-105.60119 -31.76992,-15.6796 -58.40429,-22.28456 -93.91792,-23.29036 -30.43826,-0.86207 -52.64536,2.31357 -79.01519,11.29926 -33.20076,11.31336 -61.86128,28.83846 -86.90026,53.13704 -42.4857,41.22942 -65.49058,90.94165 -69.93282,151.12085 -2.90028,39.2902 4.84667,78.8153 22.47272,114.6563 12.07856,24.5607 25.03495,42.806 44.07068,62.0609 30.48195,30.8328 65.48201,51.14 106.61509,61.8586 13.46466,3.5087 31.32453,6.5674 38.51325,6.5958 6.11183,0.024 6.36333,0.4761 5.57331,10.0138 L 430.5,1287.5 l -3.5,0.1642 c -1.925,0.09 -8.225,-0.4263 -14,-1.1481 z m 515.22783,-65.5089 c -2.28995,-0.9667 -3.95124,-3.6171 -2.91604,-4.6523 0.30738,-0.3074 1.5881,0.162 2.84605,1.0431 4.69344,3.2874 10.84216,0.8904 10.84216,-4.2267 0,-2.535 0.19139,-2.4826 -3.88158,-1.0627 -6.66091,2.322 -12.11842,-2.7834 -12.11842,-11.3364 0,-7.9807 4.33655,-11.2202 13.56728,-10.1353 L 942,1191.2754 v 12.3065 c 0,11.3284 -0.17883,12.5124 -2.25,14.8961 -2.50181,2.8793 -7.89059,4.0622 -11.52217,2.5292 z m 8.81149,-12.838 c 1.71249,-1.3866 2.28512,-2.9377 2.36079,-6.3945 0.11991,-5.4785 -2.32791,-8.7747 -6.51614,-8.7747 -6.66711,0 -9.69651,10.6425 -4.24911,14.9274 3.24745,2.5545 5.46954,2.6184 8.40446,0.2418 z m 303.25988,12.6508 c -3.4619,-0.9212 -4.7757,-2.2401 -3.8015,-3.8163 0.3884,-0.6285 1.6843,-0.4438 3.5094,0.5 1.5915,0.823 3.7462,1.4963 4.7883,1.4963 2.4631,0 5.2046,-3.0702 5.2046,-5.8287 0,-2.535 0.1914,-2.4826 -3.8816,-1.0627 -9.0247,3.146 -15.74,-8.6566 -10.1457,-17.8318 2.153,-3.5311 5.5698,-4.8686 9.7958,-3.8345 1.5023,0.3676 3.7217,0.6504 4.9319,0.6284 1.2103,-0.022 2.4905,0.4292 2.8451,1.0028 0.3545,0.5737 0.3217,6.2099 -0.073,12.5251 -0.7869,12.5943 -1.7408,14.8174 -6.9726,16.2511 -1.65,0.4521 -4.4403,0.4388 -6.2008,-0.03 z m 7.4384,-12.3487 c 3.8282,-2.6814 3.7955,-12.2403 -0.05,-14.6856 -4.4923,-2.8565 -10.6874,1.6151 -10.6874,7.7143 0,3.9745 3.3809,8.5 6.3501,8.5 1.2127,0 3.1871,-0.6879 4.3875,-1.5287 z M 1444,1221.1605 c 0,-0.4617 1.134,-1.3562 2.5201,-1.9877 4.7813,-2.1785 4.8596,-5.1348 0.4475,-16.8812 -2.234,-5.9475 -3.6228,-11.0364 -3.1428,-11.5164 1.2605,-1.2605 2.5785,0.8846 5.2073,8.4748 1.2858,3.7125 2.8929,6.75 3.5713,6.75 0.6784,0 2.2301,-3.0375 3.4482,-6.75 2.3931,-7.2942 3.6874,-9.5293 5.0356,-8.6961 0.789,0.4876 -1.261,6.7429 -7.0886,21.6289 -1.2236,3.1255 -3.0914,6.613 -4.1506,7.75 -1.8969,2.0361 -5.848,2.8656 -5.848,1.2277 z m 176.079,-0.3759 c -3.4039,-1.8061 -4.1275,-4.3277 -0.9629,-3.3555 5.53,1.6989 7.0003,1.7246 9.382,0.1641 2.4397,-1.5985 3.3588,-4.9456 1.6484,-6.0026 -0.4694,-0.2901 -2.1829,-0.026 -3.8078,0.5876 -4.107,1.5503 -8.3131,-0.6022 -10.6918,-5.4717 -2.4032,-4.9194 -1.5101,-9.9971 2.4557,-13.963 2.5495,-2.5494 3.4669,-2.8724 6.6765,-2.3508 5.4561,0.8866 5.5868,0.8954 7.2209,0.4845 1.2767,-0.3211 1.5,1.5912 1.5,12.8475 0,12.0201 -0.1876,13.4121 -2.0598,15.282 -2.5881,2.585 -8.1884,3.4614 -11.3612,1.7779 z M 1629,1208 c 1.4074,-1.4074 2,-3.3333 2,-6.5 0,-5.2005 -2.5232,-8.5 -6.5,-8.5 -3.9641,0 -6.5,3.301 -6.5,8.461 0,7.3985 6.3599,11.1791 11,6.539 z m -272,-1.9597 v -14.9598 h 2.75 c 1.5125,0 4.3558,-0.2814 6.3184,-0.6285 7.3278,-1.2962 12.6198,6.9672 10.0196,15.6457 -1.6355,5.4589 -4.827,7.3244 -11.1055,6.4916 l -4.9825,-0.661 v 4.5345 c 0,3.3639 -0.3872,4.5344 -1.5,4.5344 -1.2665,0 -1.5,-2.3289 -1.5,-14.9597 z m 12.3854,3.83 c 7.1332,-3.2501 5.0823,-16.8703 -2.5404,-16.8703 -4.4404,0 -6.845,3.1361 -6.845,8.9274 0,4.1321 0.4253,5.262 2.6349,7 3.0537,2.4021 3.4319,2.4549 6.7505,0.9429 z M 794.68333,1212.35 C 794.3075,1211.9742 794,1204.9917 794,1196.8333 V 1182 h 9.58333 c 7.21973,0 9.48173,0.3083 9.17135,1.25 -0.25913,0.7862 -3.16538,1.4355 -7.83333,1.75 l -7.42135,0.5 v 5 5 l 6.76521,0.5 c 3.72086,0.275 6.76521,0.95 6.76521,1.5 0,0.55 -3.04435,1.225 -6.76521,1.5 l -6.76521,0.5 -0.30491,6 c -0.29896,5.8829 -1.15211,8.2096 -2.51176,6.85 z M 822.5,1211.8943 c -3.96025,-2.2867 -5.45477,-5.2118 -5.47776,-10.7212 -0.0191,-4.57 0.39313,-5.7423 2.90084,-8.25 2.1641,-2.1641 3.87179,-2.9231 6.57692,-2.9231 4.77239,0 9.5,4.4405 9.5,8.9231 V 1202 h -6.41821 c -7.31258,0 -9.58179,0.6174 -9.58179,2.607 0,4.1999 7.43259,6.8374 12.15139,4.312 2.61056,-1.3972 3.6814,-0.3232 1.67667,1.6815 -2.00771,2.0077 -8.75672,2.7785 -11.32806,1.2938 z m 9.34908,-13.2125 C 833.71875,1196.429 830.49055,1193 826.5,1193 c -2.34706,0 -3.85569,0.6697 -4.91482,2.1818 -2.14923,3.0685 -0.36443,4.8182 4.91482,4.8182 2.34031,0 4.7474,-0.5932 5.34908,-1.3182 z m 12.92114,12.3521 c -5.23873,-4.1208 -6.00189,-11.9271 -1.70061,-17.3953 2.68013,-3.4072 8.0799,-4.4259 11.51833,-2.1729 2.72993,1.7887 5.88076,7.9669 4.88486,9.5783 -0.32496,0.5258 -3.7284,0.956 -7.5632,0.956 -5.53264,0 -7.102,0.3378 -7.60013,1.6359 -1.5668,4.083 4.63404,7.5788 9.91051,5.5872 4.01962,-1.5173 4.96125,-0.6032 1.91924,1.863 -3.04537,2.4689 -8.19398,2.4453 -11.369,-0.052 z m 9.64799,-11.6409 C 857.87382,1198.067 854.37203,1193 850,1193 c -3.1446,0 -6.50335,3.2459 -5.65267,5.4628 0.60595,1.579 6.87182,2.1578 10.07088,0.9302 z m 13.28904,11.5914 c -5.73096,-4.508 -5.70191,-14.4836 0.0554,-19.0123 2.5579,-2.0121 5.2539,-2.2444 10.23739,-0.8821 1.16961,0.3197 1.56658,-0.7464 1.80226,-4.84 0.21743,-3.7766 0.70857,-5.25 1.75,-5.25 1.20083,0 1.44774,2.6203 1.44774,15.3641 v 15.3641 l -4.63957,0.6359 c -6.89954,0.9457 -7.85407,0.822 -10.65318,-1.3797 z m 9.65789,-2.057 c 2.17946,-1.7143 2.63486,-2.8858 2.63486,-6.7775 0,-6.231 -2.08427,-9.1499 -6.53365,-9.1499 -4.30242,0 -6.73908,3.3326 -6.73908,9.2169 0,3.2674 0.57342,4.645 2.69213,6.4674 3.31236,2.8492 4.58322,2.8881 7.94574,0.2431 z m 14.12927,2.9186 c -0.96142,-2.5054 -0.0766,-20.8562 1.00559,-20.8558 1.34723,6e-4 1.88176,20.028 0.56957,21.3402 -0.67201,0.672 -1.19287,0.5119 -1.57516,-0.4844 z m 9.14507,0.4601 C 900.28777,1211.9544 900,1207.0167 900,1201.3333 c 0,-9.4082 0.16655,-10.3333 1.86043,-10.3333 1.02323,0 3.91243,-0.2813 6.42043,-0.625 4.01303,-0.5501 4.86944,-0.3156 7.13958,1.9545 2.37026,2.3703 2.57956,3.2729 2.57956,11.125 0,6.9293 -0.28369,8.5455 -1.5,8.5455 -1.20721,0 -1.5,-1.5476 -1.5,-7.9286 0,-8.902 -1.17854,-11.0714 -6.01472,-11.0714 -4.37902,0 -5.98528,3.1301 -5.98528,11.6635 0,6.6789 -0.78445,9.2187 -2.36052,7.6426 z m 58.02348,-0.056 c -0.84503,-1.3927 11.11996,-29.7387 12.68862,-30.0603 0.83241,-0.1707 2.02612,0.6475 2.65269,1.8183 2.68557,5.018 11.73546,27.9189 11.2319,28.4225 -0.77722,0.7772 -3.23617,-1.4248 -3.23617,-2.898 0,-2.9377 -3.6298,-4.5325 -10.3162,-4.5325 h -6.65871 l -2.52509,4 c -2.61047,4.1353 -3.06586,4.521 -3.83704,3.25 z M 977,1199.9354 c 0,-3.023 -4.05004,-11.9354 -5.42375,-11.9354 -1.35422,0 -5.8497,11.7485 -5.01331,13.1018 0.3053,0.494 2.77854,0.8982 5.49608,0.8982 4.32586,0 4.94098,-0.257 4.94098,-2.0646 z m 14.33659,11.4994 c -0.33034,-0.8609 -0.31819,-4.7984 0.027,-8.75 0.66145,-7.5718 0.29809,-8.9009 -2.74082,-10.0252 -1.74382,-0.6451 -1.69052,-0.8675 0.75,-3.1293 1.44496,-1.3391 2.62721,-3.3241 2.62721,-4.4111 0,-2.6981 2.63495,-5.1192 5.57143,-5.1192 3.16259,0 3.11999,1.7866 -0.0714,3 -3.28983,1.2508 -3.6381,6.6826 -0.46039,7.1804 2.69097,0.4217 2.99578,2.1906 0.46039,2.6716 -3.05355,0.5792 -3.46813,1.9353 -3.48469,11.398 -0.009,5.3343 -0.41793,8.75 -1.04669,8.75 -0.56727,0 -1.30168,-0.7044 -1.63203,-1.5652 z m 13.34671,0.9152 c -0.3758,-0.3758 -0.6833,-5.3858 -0.6833,-11.1333 0,-10.1245 0.065,-10.4329 2.1007,-9.9006 1.1553,0.3021 3.1925,0.052 4.5271,-0.5563 4.3567,-1.985 4.8559,0.5926 0.6419,3.3148 -3.7481,2.4213 -3.7714,2.4782 -4.0685,9.9292 -0.2875,7.2089 -1.068,9.7961 -2.5179,8.3462 z m 16,0 c -0.3758,-0.3758 -0.6833,-5.5958 -0.6833,-11.6 0,-8.2878 0.301,-10.8168 1.25,-10.5021 0.8667,0.2874 1.3379,3.5825 1.5368,10.7465 0.2648,9.5389 -0.3893,13.0698 -2.1035,11.3556 z m 11.8201,-1.6 c -7.3656,-6.3542 -3.4242,-20.75 5.6811,-20.75 3.7271,0 8.8155,2.6123 8.8155,4.5257 0,1.8412 -0.9518,1.8253 -3.4411,-0.057 -5.2815,-3.9947 -11.5589,-0.073 -11.5589,7.2204 0,7.2226 5.6448,10.5559 11.4426,6.7571 3.1919,-2.0915 4.2591,-0.1774 1.391,2.4947 -3.0437,2.8356 -8.9279,2.7448 -12.3302,-0.1904 z m 21.818,0.6002 c -5.6737,-4.888 -2.4468,-10.7341 6.5865,-11.9324 3.924,-0.5205 5.0921,-1.0766 5.0921,-2.4242 0,-3.8548 -3.6824,-4.7011 -10.75,-2.4705 -3.3285,1.0505 -2.8064,-1.184 0.7003,-2.9974 4.032,-2.085 7.2862,-1.9141 10.4148,0.5469 2.4945,1.9622 2.6349,2.5475 2.6349,10.9888 0,8.5968 -0.081,8.9141 -2.25,8.8588 -1.2375,-0.032 -4.057,0.2436 -6.2655,0.6114 -3.1363,0.5224 -4.4856,0.2637 -6.1631,-1.1814 z m 11.3192,-4.2435 c 0.6527,-1.3163 0.9524,-3.0038 0.6661,-3.75 -1.1833,-3.0834 -11.3067,-0.3973 -11.3067,3 0,4.27 8.595,4.8759 10.6406,0.75 z m 9.9832,4.3554 c -0.3419,-0.8911 0.062,-1.788 0.9603,-2.1327 1.8673,-0.7166 3.9107,1.061 2.9698,2.5835 -0.9813,1.5877 -3.2476,1.3278 -3.9301,-0.4508 z m 28.6171,-0.4567 c -4.8797,-2.9752 -7.2334,-7.5324 -7.2334,-14.0054 0,-8.4986 4.0842,-13.8846 11.739,-15.4805 3.9047,-0.8141 9.3431,0.817 11.809,3.5418 2.9833,3.2965 0.3892,4.349 -3.5522,1.4411 -10.1219,-7.4677 -20.8914,4.2564 -15.5821,16.9633 1.8582,4.4472 6.5978,6.9292 11.8791,6.2208 4.7771,-0.6407 6.7028,-2.3551 6.9872,-6.2206 0.1621,-2.2022 -0.2622,-2.9654 -1.7875,-3.2156 -4.9767,-0.8165 -6.5,-1.36 -6.5,-2.3193 0,-0.623 2.2747,-0.9122 5.75,-0.7309 l 5.75,0.2999 0.3149,3.8264 c 0.393,4.7754 -1.8333,8.3655 -6.3606,10.2571 -4.7078,1.9671 -9.3738,1.7629 -13.2134,-0.5781 z m 43.5091,0.9145 c -4.3478,-2.5324 -6.1052,-11.3986 -3.325,-16.7749 2.962,-5.7279 11.0043,-6.8696 15.6519,-2.2219 2.5414,2.5414 2.9231,3.6612 2.9231,8.5769 0,4.9157 -0.3817,6.0355 -2.9231,8.5769 -2.2309,2.2309 -3.8293,2.9159 -6.75,2.8927 -2.1048,-0.017 -4.6144,-0.4891 -5.5769,-1.0497 z m 10.5,-4.1176 c 2.4893,-2.8788 2.3462,-10.2061 -0.25,-12.8023 -4.4505,-4.4505 -12,-0.6205 -12,6.0878 0,8.3961 7.3245,12.4109 12.25,6.7145 z m 15.2558,4.0309 c -1.742,-4.689 -6.5058,-19.3491 -6.5058,-20.0208 0,-0.4468 0.625,-0.8124 1.389,-0.8124 0.8623,0 2.056,2.4646 3.1486,6.5009 2.639,9.7491 3.827,9.9813 6.6185,1.2936 2.9912,-9.3089 4.6333,-9.4973 7.4224,-0.8517 3.1066,9.6295 3.9757,9.2361 6.9642,-3.1518 0.3594,-1.4899 1.2844,-3.2325 2.0554,-3.8724 2.1967,-1.8231 1.7009,2.2457 -1.5331,12.5814 -1.7529,5.6022 -3.3349,9 -4.1905,9 -0.803,0 -2.2073,-2.5791 -3.3775,-6.203 -1.6384,-5.074 -4.4033,-10.1111 -4.5268,-8.247 -0.016,0.2475 -1.057,3.5719 -2.3124,7.3875 -2.2166,6.7365 -4.1389,9.1229 -5.152,6.3957 z m 37.9473,-0.095 c -0.293,-0.7637 -0.4024,-5.6297 -0.2429,-10.8134 0.2848,-9.2614 0.3332,-9.4277 2.7898,-9.5812 1.375,-0.086 4.1544,-0.4769 6.1765,-0.8689 3.1422,-0.6091 4.0506,-0.3387 6.25,1.8607 2.367,2.367 2.5735,3.2659 2.5735,11.2023 0,6.4561 -0.3147,8.525 -1.25,8.2166 -0.8072,-0.2661 -1.4271,-3.3206 -1.75,-8.6224 -0.5269,-8.6521 -1.3423,-10.0868 -5.75,-10.1168 -4.4551,-0.03 -6.25,3.251 -6.25,11.4257 0,6.8828 -1.2889,10.5757 -2.5469,7.2974 z m 103.9139,-0.5106 c -5.0773,-4.1128 -6.062,-13.1458 -1.9536,-17.922 2.0034,-2.3291 3.2066,-2.8058 7.082,-2.8058 4.0095,0 5.0806,0.4611 7.5866,3.2658 2.3179,2.5942 2.918,4.2014 2.918,7.8157 0,5.5843 -1.1875,7.947 -4.98,9.9081 -3.8356,1.9835 -8.0076,1.881 -10.653,-0.2618 z m 10.883,-3.4255 c 0.9965,-1.1525 1.75,-3.6403 1.75,-5.7782 0,-9.9115 -11.3482,-12.6658 -13.9131,-3.3768 -2.5117,9.0969 6.408,15.8108 12.1631,9.155 z m 11.6108,3.2838 c -3.2148,-2.6063 -1.9502,-3.4392 2.4378,-1.6058 4.7012,1.9643 8.9984,0.6092 8.5207,-2.687 -0.2367,-1.6338 -1.7146,-2.7347 -5.7168,-4.2587 -6.1162,-2.3289 -7.6753,-4.1164 -6.7625,-7.7532 1.1748,-4.6809 8.2738,-5.9792 13.1584,-2.4066 2.6384,1.9298 1.1539,3.3123 -1.8376,1.7113 -1.2848,-0.6877 -3.6466,-1.1008 -5.2484,-0.9182 -2.3204,0.2646 -2.9124,0.8227 -2.9124,2.7458 0,1.975 0.8406,2.702 4.6251,4 6.0644,2.0799 7.8749,3.7243 7.8749,7.152 0,5.5002 -9.1164,8.0924 -14.1392,4.0204 z m 48.4882,0.7376 c -6.3025,-3.0501 -7.0319,-14.0367 -1.2735,-19.1823 2.671,-2.3866 3.7954,-2.7636 6.8118,-2.2837 4.4202,0.7033 8.1127,4.6622 8.1127,8.6981 v 2.9442 h -6.4182 c -9.949,0 -11.8481,1.5223 -7.2673,5.8257 2.5069,2.3551 6.6241,2.8127 9.8369,1.0933 2.9975,-1.6042 3.7104,-0.04 0.9878,2.1671 -2.5552,2.0716 -7.3557,2.3997 -10.7902,0.7376 z m 10.3037,-13.3609 c 0.8507,-2.2169 -2.5081,-5.4628 -5.6527,-5.4628 -3.1446,0 -6.5034,3.2459 -5.6527,5.4628 0.4233,1.1028 2.0204,1.5372 5.6527,1.5372 3.6323,0 5.2294,-0.4344 5.6527,-1.5372 z m 8.8361,11.2872 c -0.331,-1.7875 -0.4639,-6.625 -0.2953,-10.75 l 0.3065,-7.5 3,-0.1345 c 1.65,-0.074 4.0125,-0.464 5.25,-0.8667 3.5762,-1.1636 2.7433,1.7503 -1.0008,3.5012 -3.7052,1.7328 -4.509,3.9368 -4.6495,12.75 -0.1062,6.6601 -1.6126,8.391 -2.6109,3 z m 16.0056,2.096 c -0.9614,-2.5054 -0.077,-20.8562 1.0056,-20.8558 1.3472,6e-4 1.8818,20.028 0.5696,21.3402 -0.672,0.672 -1.1929,0.5119 -1.5752,-0.4844 z m 11.0623,-1.0685 c -1.0568,-1.5088 -1.5567,-4.5202 -1.5567,-9.3776 0,-5.3206 -0.4077,-7.4934 -1.5903,-8.4748 -1.4029,-1.1643 -1.4143,-1.4485 -0.097,-2.4117 0.8212,-0.6005 1.6494,-2.1639 1.8403,-3.4743 0.5017,-3.4426 2.642,-3.6892 3.0251,-0.3484 0.2326,2.0286 0.9474,2.8981 2.5721,3.1289 1.2375,0.1757 2.25,0.9319 2.25,1.6804 0,0.7485 -1.0125,1.5047 -2.25,1.6804 -2.0825,0.2958 -2.2718,0.8971 -2.5422,8.0783 -0.2845,7.5521 -0.2229,7.785 2.3102,8.7481 1.4313,0.5442 2.3237,1.4403 1.9832,1.9913 -1.0813,1.7495 -4.3316,1.0821 -5.9445,-1.2206 z M 1465,1211 c 0,-1.3333 0.6667,-2 2,-2 1.3333,0 2,0.6667 2,2 0,1.3333 -0.6667,2 -2,2 -1.3333,0 -2,-0.6667 -2,-2 z m 21.4391,0.7018 c -0.274,-0.7139 -0.3724,-7.5764 -0.2186,-15.25 l 0.2795,-13.9518 7.1242,-0.2913 c 6.456,-0.2639 7.4175,-0.044 10.25,2.3389 2.6311,2.214 3.1258,3.3283 3.1258,7.0413 0,6.8746 -2.8241,8.8214 -14,9.6512 l -3.5,0.2599 -0.2999,5.75 c -0.2789,5.3464 -1.6002,7.4769 -2.761,4.4518 z m 15.3384,-15.2585 c 1.56,-1.0927 2.2225,-2.5762 2.2225,-4.977 0,-4.6277 -3.1736,-6.6883 -9.6635,-6.2746 l -4.8365,0.3083 -0.3098,4.8729 c -0.1704,2.6802 -0.072,5.4927 0.2186,6.25 0.7409,1.9309 9.5379,1.8031 12.3687,-0.1796 z m 11.9171,15.918 c -0.382,-0.3821 -0.6946,-7.6321 -0.6946,-16.1113 0,-11.8882 0.2861,-15.3216 1.25,-15.0013 0.9039,0.3004 1.3269,4.3494 1.5277,14.6226 0.2576,13.1811 -0.376,18.1971 -2.0831,16.49 z m 8.378,-1.9962 c -1.1399,-1.4491 -2.0726,-3.2696 -2.0726,-4.0454 0,-2.4257 4.736,-6.3189 7.7045,-6.3334 4.5634,-0.022 7.2955,-1.1094 7.2955,-2.9029 0,-3.7296 -4.831,-5.3146 -9.1514,-3.0024 -2.9975,1.6042 -3.7104,0.04 -0.9878,-2.1671 4.0915,-3.317 10.923,-1.8786 13.0289,2.7434 0.6107,1.3403 1.1103,5.728 1.1103,9.7505 v 7.3136 l -5.25,0.6306 c -8.3336,1.001 -9.4807,0.8058 -11.6774,-1.9869 z m 12.2214,-2.1378 c 2.6928,-2.427 1.8043,-5.6589 -1.6648,-6.0554 -4.1891,-0.4787 -7.4252,0.5784 -8.6233,2.817 -0.8369,1.5638 -0.6208,2.3962 1.0578,4.0748 2.3558,2.3558 6.061,2.02 9.2303,-0.8364 z m 37.2774,3.2013 c -1.1443,-1.1444 -1.5714,-3.575 -1.5714,-8.9433 0,-6.4843 -0.2676,-7.5593 -2.2225,-8.9286 l -2.2225,-1.5567 2.2225,-1.5567 c 1.2224,-0.8562 2.2225,-2.4687 2.2225,-3.5833 0,-2.6822 2.4039,-1.8566 2.8196,0.9683 0.1973,1.3415 1.035,2.1717 2.1909,2.1717 3.0779,0 3.2222,1.7797 0.259,3.194 -2.3906,1.141 -2.8122,1.9957 -3.0818,6.2476 -0.4298,6.7791 0.432,9.4633 3.4004,10.5919 1.3927,0.5295 2.2536,1.4136 1.9131,1.9646 -0.9345,1.512 -4.1578,1.2024 -5.9298,-0.5695 z m 12.0953,0.9047 C 1582.5698,1211.2364 1582.886,1191 1584,1191 c 0.6061,0 1,4.3333 1,11 0,10.9817 -0.078,11.5884 -1.3333,10.3333 z m 70.3685,-1.2676 c -0.5694,-1.0638 -1.0352,-5.0587 -1.0352,-8.8775 0,-4.9519 -0.4302,-7.3004 -1.5,-8.1882 -1.6845,-1.398 -2.0221,-4 -0.5191,-4 0.5396,0 1.2683,-1.1446 1.6194,-2.5436 0.7378,-2.9398 2.7562,-2.7698 3.2059,0.27 0.1684,1.1383 1.1809,2.2985 2.25,2.578 2.2621,0.5916 2.636,2.6956 0.479,2.6956 -2.4657,0 -3.7877,3.9421 -3.2988,9.8367 0.3528,4.2553 0.9621,5.8832 2.6119,6.9786 2.8511,1.893 2.7241,3.1847 -0.3131,3.1847 -1.4135,0 -2.9064,-0.8251 -3.5,-1.9343 z m 39.8529,0.4347 c -5.9393,-3.228 -6.4663,-13.8069 -0.9341,-18.7504 1.6927,-1.5125 3.9928,-2.75 5.1114,-2.75 3.4516,0 7.592,2.7586 8.9076,5.9349 2.1109,5.0961 0.9969,6.0651 -6.973,6.0651 -8.1656,0 -9.7654,1.4919 -5.9522,5.5509 2.5053,2.6667 7.6727,3.3286 9.7522,1.2491 0.8622,-0.8622 1.5052,-0.8948 2.2843,-0.1157 0.779,0.779 0.4348,1.5391 -1.2225,2.7 -2.8159,1.9723 -7.4678,2.0215 -10.9737,0.1161 z m 9.8024,-13.1363 c 1.6903,-4.4047 -5.7126,-7.2072 -9.1129,-3.4499 -2.8579,3.158 -1.3711,5.0858 3.9224,5.0858 3.3018,0 4.7363,-0.4521 5.1905,-1.6359 z m 21.9762,13.9692 c -0.3667,-0.3666 -0.6667,-7.3416 -0.6667,-15.5 V 1182 h 10.0833 c 7.6199,0 9.9826,0.3054 9.6711,1.25 -0.2638,0.8 -3.264,1.43 -8.3333,1.75 l -7.9211,0.5 -0.3145,3.8198 c -0.4586,5.5697 0.9577,6.6802 8.5203,6.6802 4.7216,0 6.35,0.3365 6.0492,1.25 -0.2538,0.7705 -3.0671,1.4418 -7.3334,1.75 l -6.9216,0.5 -0.2957,6.75 c -0.2751,6.2813 -0.8828,7.7381 -2.5376,6.0833 z m 25.816,-1.3525 c -1.4743,-1.629 -1.8424,-3.7837 -1.905,-11.1536 -0.05,-5.9218 0.3171,-9.2706 1.0448,-9.5216 0.7508,-0.2591 1.2703,2.4308 1.5692,8.1251 0.5183,9.8751 2.3562,13.1506 6.759,12.0455 4.4531,-1.1176 5.0493,-2.3004 5.0493,-10.0169 0,-7.7546 0.6469,-10.7956 2.1048,-9.8945 0.4924,0.3043 0.8952,5.1905 0.8952,10.8583 v 10.3051 l -4.6396,0.6359 c -7.2529,0.9941 -8.9179,0.7824 -10.8777,-1.3833 z m 25.0887,0.4478 c -1.1469,-1.1469 -1.5714,-3.581 -1.5714,-9.0098 0,-6.1682 -0.3371,-7.727 -1.974,-9.1285 -1.9652,-1.6827 -1.9652,-1.6983 0,-3.5292 1.0857,-1.0115 1.974,-2.534 1.974,-3.3834 0,-2.3149 2.451,-1.0538 2.8196,1.4506 0.1973,1.3415 1.035,2.1717 2.1909,2.1717 2.992,0 3.3454,1.9142 0.5497,2.9771 -2.4349,0.9258 -2.5602,1.3429 -2.5602,8.5229 0,7.18 0.1253,7.5971 2.5602,8.5229 1.4081,0.5353 2.2815,1.4242 1.941,1.9752 -0.9345,1.512 -4.1578,1.2024 -5.9298,-0.5695 z m 13.5266,-0.3306 c -1.8198,-1.8198 -2.098,-3.2912 -2.098,-11.098 0,-5.3333 0.4074,-9 1,-9 0.5664,0 1.0064,2.9265 1.0147,6.75 0.018,8.4213 1.5038,11.6601 5.5081,12.0105 5.063,0.4431 5.9282,-0.8784 6.4772,-9.8926 0.3229,-5.3018 0.9428,-8.3563 1.75,-8.6224 0.947,-0.3123 1.25,2.1433 1.25,10.1309 v 10.5431 h -2.75 c -1.5125,0 -4.3934,0.2857 -6.402,0.6383 -2.9212,0.5127 -4.0719,0.2211 -5.75,-1.457 z m 21.3863,-0.3071 c -0.3159,-1.26 -0.4416,-6.1159 -0.2794,-10.7909 0.2682,-7.7251 0.4774,-8.5023 2.2951,-8.5248 1.1,-0.014 3.0578,-0.3959 4.3507,-0.8494 3.8963,-1.3666 4.8893,0.9402 1.2212,2.837 -3.8861,2.0096 -5.0719,4.9421 -5.0719,12.5433 0,6.0315 -1.4918,8.8688 -2.5157,4.7848 z m 17.2815,-0.7089 c -2.9599,-2.6446 -3.2658,-3.4485 -3.2658,-8.582 0,-5.1335 0.3059,-5.9374 3.2658,-8.582 4.3381,-3.8761 8.4316,-3.8744 12.3111,0.01 1.9641,1.9641 2.9231,3.9325 2.9231,6 v 3.0769 h -6.8776 c -8.3714,0 -10.1859,1.3782 -7.0549,5.3586 2.2477,2.8576 6.4462,3.5072 10.0839,1.5604 2.9975,-1.6042 3.7104,-0.04 0.9878,2.1671 -3.5383,2.8685 -8.4888,2.4668 -12.3734,-1.0041 z m 11.1551,-11.012 c 2.3588,-1.4929 -1.2524,-6.07 -4.789,-6.07 -3.2545,0 -6.6502,3.2068 -5.7846,5.4628 0.6612,1.7229 8.1329,2.152 10.5736,0.6072 z m 10.7666,13.2842 c -1.4155,-1.4155 -0.6145,-3.3542 1.3858,-3.3542 1.398,0 1.968,0.5431 1.75,1.6671 -0.3569,1.8405 -2.064,2.7589 -3.1358,1.6871 z m -721.2603,-1.6833 c -0.2805,-0.7311 -0.3789,-5.3436 -0.2186,-10.25 0.2914,-8.92 0.2917,-8.9209 2.9525,-8.9209 1.4637,0 3.0012,-0.3375 3.4167,-0.75 1.2403,-1.2312 4.4222,-0.8493 4.4222,0.5308 0,0.7044 -1.3457,1.7887 -2.9903,2.4095 -3.6988,1.3961 -5.0097,4.6344 -5.0097,12.3748 0,5.499 -1.3219,7.8655 -2.5728,4.6058 z M 1202,1201.5 c 0,-8.6667 0.2619,-10.5 1.5,-10.5 1.2381,0 1.5,1.8333 1.5,10.5 0,8.6667 -0.2619,10.5 -1.5,10.5 -1.2381,0 -1.5,-1.8333 -1.5,-10.5 z m 69.8027,-3.5162 c -0.1665,-7.7089 -0.1527,-14.4589 0.031,-15 0.1834,-0.5411 3.6102,-0.9838 7.6152,-0.9838 5.74,0 7.8141,0.4187 9.7958,1.9775 2.9805,2.3445 3.8749,6.007 2.597,10.635 -1.1492,4.1623 -3.2542,5.3335 -11.151,6.2046 l -6.1903,0.6829 -0.3023,5.25 c -0.6002,10.4262 -2.099,4.9407 -2.395,-8.7662 z m 15.7428,-2.4383 c 4.6287,-4.6288 2.2373,-9.9011 -4.9819,-10.9837 -6.6432,-0.9962 -8.5636,0.4106 -8.5636,6.2734 0,5.8863 1.2037,7.1648 6.7455,7.1648 3.2803,0 4.947,-0.6016 6.8,-2.4545 z m 9.4545,5.8461 v -10.6084 l 2.5205,0.6326 c 1.3863,0.3479 3.4596,0.13 4.6074,-0.4842 3.9461,-2.112 4.0688,0.6062 0.1418,3.1434 -3.7697,2.4355 -3.7697,2.4355 -4.0618,10.1803 -0.2257,5.9846 -0.6234,7.7447 -1.75,7.7447 -1.1856,0 -1.4579,-1.9814 -1.4579,-10.6084 z m 247.5205,1.0402 c -0.3946,-5.2626 -0.4106,-9.8751 -0.036,-10.25 0.375,-0.375 1.8818,-0.7678 3.3484,-0.873 1.4667,-0.1051 4.0775,-0.4861 5.8019,-0.8466 4.3102,-0.9012 7.0844,0.8669 8.3155,5.2996 1.1459,4.1264 1.3893,12.1887 0.4423,14.6564 -1.3723,3.5763 -2.393,1.147 -2.393,-5.6957 0,-8.5947 -1.5967,-11.7225 -5.9841,-11.7225 -4.7407,0 -7.0159,3.9352 -7.0159,12.1349 0,10.1374 -1.6518,8.3367 -2.4795,-2.7031 z M 1592,1201.393 c 0,-9.3908 0.1868,-10.5353 1.629,-9.9819 0.8959,0.3438 3.0779,0.1011 4.849,-0.5393 7.8014,-2.821 11.8394,2.1289 11.316,13.8717 -0.1856,4.1657 -0.7547,6.7493 -1.544,7.0101 -0.9242,0.3054 -1.25,-1.5055 -1.25,-6.9478 0,-8.5967 -1.5944,-11.8058 -5.8656,-11.8058 -5.2943,0 -6.5742,2.001 -6.9788,10.911 -0.5356,11.7933 -2.1556,9.9009 -2.1556,-2.518 z m 74,-4.893 c 0,-12.0861 0.2857,-15.5726 1.25,-15.2552 0.7016,0.231 1.3847,2.4843 1.5569,5.1361 l 0.307,4.7246 4.2832,-0.6423 c 3.6574,-0.5485 4.7082,-0.2767 7.193,1.8606 2.7247,2.3437 2.9323,3.0493 3.2625,11.0896 0.3021,7.3569 0.1231,8.5866 -1.25,8.5866 -1.3233,0 -1.6026,-1.2682 -1.6026,-7.2775 0,-8.5356 -1.6045,-11.7225 -5.9017,-11.7225 -4.4626,0 -5.9636,2.6077 -6.3,10.9453 -0.1937,4.8021 -0.7366,7.5396 -1.5483,7.808 -0.9644,0.3189 -1.25,-3.1662 -1.25,-15.2533 z m -775.3125,-12.1458 c -1.37384,-1.3739 -0.66124,-3.4958 1.0625,-3.1638 0.9625,0.1853 1.75,0.9683 1.75,1.74 0,1.5788 -1.76429,2.472 -2.8125,1.4238 z m 310.9363,-0.8921 c -0.3398,-0.8855 0.057,-1.7862 0.9362,-2.1235 1.9566,-0.7508 2.8495,0.152 2.0949,2.1183 -0.7591,1.9781 -2.273,1.9808 -3.0311,0.01 z m 220.0157,0.844 c -1.1952,-1.1951 -0.6457,-3.3061 0.8605,-3.3061 0.825,0 1.5,0.6484 1.5,1.441 0,1.6706 -1.4273,2.7984 -2.3605,1.8651 z m 160.8066,-0.3932 c -1.0305,-1.6675 1.2873,-3.5795 2.6668,-2.2 1.1539,1.1539 0.4317,3.2871 -1.1129,3.2871 -0.4851,0 -1.1843,-0.4892 -1.5539,-1.0871 z m -562.8761,-0.7996 c -0.6805,-1.1011 1.8677,-3.3423 2.772,-2.438 0.3619,0.3619 0.658,1.258 0.658,1.9914 0,1.4897 -2.5779,1.8253 -3.43,0.4466 z M 831.21698,1026.5507 c -30.65276,-7.4221 -48.15857,-39.3831 -39.60458,-72.3076 5.01734,-19.31183 22.23025,-35.5593 42.14276,-39.77904 14.46095,-3.06449 32.20312,-1.06606 44.11204,4.96864 C 883.31884,922.19526 890,927.58054 890,929.21223 890,930.94304 880.6798,943 879.34186,943 c -0.69982,0 -3.40356,-1.35154 -6.0083,-3.00342 -11.17109,-7.08449 -24.33287,-9.56118 -34.88578,-6.56454 -22.11507,6.27988 -32.97997,30.20531 -24.20242,53.29583 3.11902,8.20497 12.17845,17.26053 20.25464,20.24603 11.23191,4.152 26.78831,1.6535 37.58874,-6.0371 2.93023,-2.08649 2.98592,-2.28818 2.70158,-9.78361 L 874.5,983.5 l -12,-0.5 -12,-0.5 v -9 -9 h 22 22 l 0.26466,30.25 0.26467,30.25 H 887.01466 879 v -3 c 0,-1.65 -0.46283,-3 -1.02852,-3 -0.56568,0 -3.71106,1.3541 -6.98973,3.0092 -11.28626,5.6973 -27.39384,7.5369 -39.76477,4.5415 z m 92.02432,-1.3606 c -0.99145,-0.645 -1.20378,-12.3768 -1,-55.2545 L 922.5,915.5 l 31,0.0124 c 30.04606,0.0121 31.177,0.0835 36.75209,2.32263 12.05651,4.84222 19.25221,13.3203 21.76551,25.64421 3.2249,15.81328 -4.5234,33.23037 -17.5991,39.56018 -2.43017,1.17643 -4.4185,2.61747 -4.4185,3.20231 0,0.58485 5.4,9.23281 12,19.21777 6.6,9.9849 12,18.7055 12,19.3791 0,0.9129 -2.9911,1.1531 -11.7451,0.9431 L 990.50978,1025.5 978.20723,1007.25 965.90468,989 h -10.95234 c -6.02379,0 -11.03845,0.1125 -11.1437,0.25 -0.10524,0.1375 -0.44274,8.35 -0.75,18.25 l -0.55864,18 -9,0.2545 c -4.95,0.14 -9.56642,-0.1139 -10.2587,-0.5644 z m 58.85142,-57.51032 c 10.99241,-5.78698 12.57777,-22.62655 2.81518,-29.90261 -1.52718,-1.13821 -5.43011,-2.2975 -9.5,-2.82181 -9.19735,-1.18486 -28.52656,-1.16698 -30.4079,0.0281 -1.22272,0.77672 -1.50879,3.7778 -1.54755,16.23469 -0.0262,8.405 0.32717,16.06932 0.78518,17.03182 0.74284,1.56108 2.59319,1.75 17.14027,1.75 15.12475,0 16.62719,-0.16829 20.71482,-2.32022 z m 56.60218,57.58142 c -0.2403,-0.4187 -0.6074,-25.2862 -0.8159,-55.2612 l -0.379,-54.5 41.25,-0.26109 41.25,-0.2611 v 9.5111 V 934 h -29.3089 c -22.0193,0 -29.7382,0.31392 -31.0349,1.26216 -1.4926,1.09142 -1.6876,2.81621 -1.4412,12.75 l 0.285,11.48784 26.4179,0.26693 c 17.4456,0.17627 26.8704,0.6424 27.75,1.37245 1.3785,1.14398 1.9145,13.1793 0.7251,16.27883 -0.5319,1.38602 -3.8426,1.58369 -26.75,1.5971 -14.3786,0.008 -26.7195,0.38115 -27.4242,0.82828 -0.9583,0.60813 -1.2103,4.06867 -1,13.73468 l 0.2812,12.92173 31.2873,0.2643 31.2874,0.2643 -0.2874,9.2357 -0.2873,9.2357 -40.6841,0.2612 c -22.3762,0.1436 -40.8807,-0.081 -41.121,-0.5 z m 107.9718,0.072 C 1146.3,1024.9667 1146,999.99167 1146,969.83333 V 915 h 41 41 v 9.5 9.5 h -29.8776 c -24.3192,0 -30.0926,0.25917 -31.0337,1.39313 -0.7653,0.92214 -1.0603,5.2327 -0.8725,12.75 L 1166.5,959.5 l 27,0.5 27,0.5 v 9 9 l -27,0.5 -27,0.5 v 13.5 13.5 l 30.4502,0.265 c 16.7477,0.1457 30.6977,0.6616 31,1.1463 0.3024,0.4848 0.4042,4.7531 0.2263,9.4851 l -0.3234,8.6036 h -40.2599 c -22.1429,0 -40.5599,-0.3 -40.9265,-0.6667 z m 105.806,-0.5469 c -0.2708,-0.7075 -0.3755,-25.5864 -0.2326,-55.2864 l 0.2599,-54 9.1665,-0.28642 9.1665,-0.28642 27.6457,35.53642 C 1313.6838,970.00861 1326.5463,986 1327.0622,986 c 0.5652,0 0.9439,-13.60738 0.9531,-34.25 0.01,-18.8375 0.3835,-34.83038 0.8336,-35.53973 0.596,-0.93947 3.3755,-1.21104 10.2347,-1 l 9.4164,0.28973 0.2587,54.4356 c 0.2038,42.8859 -0.01,54.6052 -1,55.2347 -0.6923,0.4395 -4.2711,0.806 -7.9529,0.8144 -5.5521,0.013 -7.1184,-0.3686 -9.1799,-2.2347 -1.3671,-1.2375 -8.8552,-10.575 -16.6401,-20.75 -33.1385,-43.31219 -38.4446,-50 -39.6696,-50 -1.0264,0 -1.3451,7.43525 -1.5537,36.25 l -0.2625,36.25 -9.7674,0.2864 c -7.2528,0.2127 -9.8942,-0.045 -10.2599,-1 z m 128.5394,0.3803 C 1380.3456,1024.9472 1380,1006.08 1380,969.91667 V 915 h 25.7899 c 27.27,0 32.718,0.66765 41.34,5.06628 6.2522,3.18963 12.5387,9.55963 15.5839,15.79086 2.497,5.10962 2.7589,6.68233 2.7719,16.64286 0.013,9.81242 -0.2702,11.60675 -2.6209,16.62001 -3.6512,7.78699 -8.9927,13.33274 -16.2224,16.84272 -7.7137,3.74495 -15.7486,5.02012 -31.6924,5.02972 -8.4186,0.005 -12.945,0.40259 -13.75,1.20755 -0.8321,0.83207 -1.2,6.04444 -1.2,17 0,11.9326 -0.306,15.8187 -1.25,15.8763 -4.9392,0.3014 -16.9118,0.3624 -17.7379,0.09 z m 53.7368,-54.98571 c 8.5405,-4.46335 12.391,-15.28929 8.7908,-24.71625 -1.9565,-5.12304 -6.1846,-8.76161 -12.0397,-10.36096 -5.5803,-1.5243 -28.7531,-1.45071 -30.3,0.0962 -1.5136,1.51356 -1.6682,31.43838 -0.1826,35.34565 l 1.0173,2.67586 14.2327,-0.41001 c 12.2685,-0.35343 14.8189,-0.71644 18.4815,-2.63051 z m 118.178,51.56901 c -1.6971,-2.3375 -7.1724,-10.6766 -12.1673,-18.5312 l -9.0817,-14.28129 -11.089,0.28125 -11.0889,0.28124 -0.5,17.5 -0.5,17.5 -10.25,0.285 -10.25,0.285 V 970.03488 914.9999 h 27.9508 c 16.7373,0 30.0767,0.4477 33.25,1.11594 11.9536,2.51725 21.5567,9.77171 26.0308,19.66436 1.701,3.76117 2.1481,6.75062 2.2015,14.7197 0.059,8.76466 -0.2544,10.68507 -2.5342,15.54563 -3.3074,7.05142 -7.9281,12.31181 -13.7861,15.69458 -2.537,1.46507 -4.9174,3.10876 -5.2898,3.65264 -0.957,1.39798 1.1161,5.06238 12.4737,22.04775 5.4946,8.2173 10.2031,15.7548 10.4634,16.75 0.4365,1.6691 -0.4268,1.8094 -11.1372,1.8094 h -11.6104 z m -5.8969,-54 c 14.3252,-7.23687 12.3479,-28.60916 -3.03,-32.74999 -2.1811,-0.58732 -10.6699,-0.93047 -19.2045,-0.7763 L 1509.5,934.5 l -0.2758,16.46161 c -0.1517,9.05389 -0.053,17.04139 0.2186,17.75 0.3755,0.97836 4.4215,1.28839 16.8139,1.28839 14.9376,0 16.6967,-0.19052 20.7733,-2.25 z m 57.2113,57.4203 c -0.9916,-0.6295 -1.2038,-12.3488 -1,-55.2347 L 1603.5,915.5 h 10 10 l 0.2588,53.88699 c 0.1871,38.96411 -0.055,54.26441 -0.8725,55.25001 -1.2567,1.5143 -16.4167,1.9479 -18.645,0.5333 z m 200.9018,-0.4272 C 1804.32,1023.92 1804,1011.2022 1804,979.31905 V 935.0381 l -2.25,-0.52625 c -1.2375,-0.28944 -8.775,-0.63551 -16.75,-0.76905 L 1770.5,933.5 v -9 -9 l 44.75,-0.2603 44.75,-0.26029 V 924.4897 934 h -16.441 c -12.0546,0 -16.6568,0.33349 -17.25,1.25 -0.4449,0.6875 -1.034,21.275 -1.309,45.75 l -0.5,44.5 -9.1069,0.1931 c -5.7463,0.1219 -9.5287,-0.2287 -10.25,-0.95 z m -150.3098,-0.741 c -0.1833,-0.5489 -0.2131,-25.2989 -0.066,-55.00004 L 1655.034,915 h 9.2451 9.245 l 13.4879,17.18119 c 7.4184,9.44966 19.49,25.08716 26.8258,34.75 7.3358,9.66285 13.9675,17.71318 14.737,17.88962 1.1744,0.26928 1.4414,-5.27314 1.6622,-34.5 L 1730.5,915.5 l 9.4164,-0.28973 c 6.8592,-0.21104 9.6387,0.0605 10.2347,1 0.4501,0.70935 0.8252,25.47723 0.8336,55.03973 l 0.015,53.75 h -8.8618 -8.8618 l -22.3217,-29.25 C 1681.2311,956.80082 1678.164,953 1676.4574,953 1675.2079,953 1675,958.13427 1675,989 v 36 h -9.9167 c -5.7081,0 -10.0581,-0.4235 -10.25,-0.9979 z M 808.27007,882.18807 c -0.89817,-0.57055 -1.30278,-6.70303 -1.5,-22.73468 L 806.5,837.5 l -8,-0.5 -8,-0.5 -0.30846,-4.26967 -0.30846,-4.26966 21.80846,0.26966 L 833.5,828.5 v 4 4 l -8,0.5 -8,0.5 -0.27007,21.95339 c -0.28666,23.30229 -0.33419,23.51598 -5.22993,23.51598 -1.375,0 -3.05347,-0.35158 -3.72993,-0.7813 z m 37.96297,-0.0181 c -0.98154,-0.62675 -1.20681,-6.7631 -1,-27.2395 L 845.5,828.5 h 4.5 4.5 l 0.5,11 0.5,11 h 12 12 l 0.5,-11 0.5,-11 h 4.5 4.5 l 0.26696,26.4305 c 0.28609,28.32545 0.33798,28.02323 -4.81696,28.05419 -4.32011,0.0259 -4.95,-1.5921 -4.95,-12.71547 v -10.33078 l -12.25,0.28078 -12.25,0.28078 -0.28383,10.75 c -0.27939,10.58164 -0.32118,10.75 -2.66821,10.75 -1.31141,0 -2.98369,0.22027 -3.71617,0.4895 -0.73249,0.26922 -1.90192,0.12544 -2.59875,-0.3195 z M 905.23363,855.27119 905.5,828.5 h 19.5 19.5 v 4 4 l -14.5,0.5 -14.5,0.5 -0.29692,6.21917 c -0.35539,7.44397 -0.90981,7.1709 15.29692,7.53423 l 11,0.2466 v 3.5 3.5 l -11,0.2466 c -15.99262,0.35853 -15.5,0.12852 -15.5,7.23727 0,7.79058 0.81419,8.20269 15.81794,8.00636 6.42513,-0.0841 12.27172,-0.11627 12.99243,-0.0716 0.89264,0.0554 1.21142,1.27676 1,3.83132 l -0.31037,3.75 -19.76637,0.27119 -19.76638,0.2712 0.26638,-26.7712 z"
         id="path24" />
    </g>
  </g>
</svg>
