<svg xmlns="http://www.w3.org/2000/svg" xmlns:xlink="http://www.w3.org/1999/xlink" width="1722" height="500" viewBox="0 0 1722 500">
  <defs>
    <clipPath id="clip-path">
      <rect id="Rectangle_71" data-name="Rectangle 71" width="500" height="500" transform="translate(17792 -13989)" fill="#fff"/>
    </clipPath>
  </defs>
  <g id="Group_206" data-name="Group 206" transform="translate(-17787 13989)">
    <g id="Mask_Group_3" data-name="Mask Group 3" transform="translate(-5)" clip-path="url(#clip-path)">
      <g id="g36" transform="translate(17560.057 -14209.59)">
        <g id="g46" transform="translate(80.313 -10.039)">
          <path id="path52" d="M565.286,674.53c-34.4-19.087-70.936-30.809-116.5-37.379a366.852,366.852,0,0,0-52.583-3.65c-32,0-58.383,3.241-88.721,10.9-25.159,6.354-42.69,12.969-66.6,25.128-6.8,3.458-12.491,6.157-12.647,6-.7-.71,12.544-11.1,22.128-17.361q50.6-33.068,121.324-40.068c10.569-1.046,39.444-1.2,50.1-.259,50.341,4.424,94.764,18.659,127.441,40.84,11.951,8.112,25.8,19.564,23.591,19.514-.535-.012-3.928-1.661-7.539-3.665Z" fill="#c6a72d"/>
          <path id="path50" d="M403.46,611c-6.412-.077-11.825-.306-12.028-.509s.267-3.537,1.044-7.409c3.569-17.778,6.087-39.038,8.64-72.95,1.229-16.324,1.224-59.018-.008-71.99-2.436-25.644-6.821-43.821-14.255-59.1-2.189-4.5-1.828-4.384-9.19-2.936-6.62,1.3-23.131,1.591-30.4.532-31.825-4.636-57.4-23.559-72.719-53.793a189.9,189.9,0,0,1-8.265-20c-3.625-11.452-9.208-38.368-8.168-39.377.505-.491,11.452-2.571,19.351-3.677,8.967-1.256,30.686-1.259,38.67-.006,24.335,3.82,41.193,11.693,54.491,25.447,9.524,9.85,15.022,18.77,18.959,30.762a66.218,66.218,0,0,1,3.746,21.456c.241,6.95-.358,15.765-1.119,16.489-.169.161-.994-.564-1.833-1.612-16.581-20.7-32.471-35.12-50.107-45.474-10.95-6.428-27.678-13.909-26.37-11.792.141.229,3.424,2.346,7.294,4.706a189.574,189.574,0,0,1,35.979,27.955c17.772,17.31,28,31.227,41.194,56.066,2.873,5.407,4.838,8.593,5.253,8.512.371-.072,1.67-3.013,2.958-6.7a226.446,226.446,0,0,1,43.979-75.237c17.031-19.353,32.385-32.76,54.695-47.761,7.93-5.332,6.349-5.389-3.89-.141-33.525,17.184-63.413,44.038-85,76.372-1.671,2.5-3.22,4.363-3.442,4.135-.656-.674-1.842-7.8-2.465-14.808-1.679-18.883,1.289-36.044,9.052-52.342,11.909-25,32.405-42.967,62.5-54.769,19.545-7.666,47.152-11.565,71.83-10.146,9.872.568,17.488,1.258,20.051,1.818l1.164.254-.331,5.2c-1.353,21.243-5.276,43.9-10.3,59.51-13.053,40.524-38.843,69.442-74.843,83.92-9.081,3.652-20.158,6.218-32.354,7.5a159.21,159.21,0,0,1-27.447-.563c-4.488-.581-4.851-.564-5.451.256-.886,1.212-4.794,13.517-6.263,19.722-2.4,10.125-4.134,23.6-5.184,40.241-.615,9.739-.289,48.828.536,64.339,1.7,31.868,5.63,81.356,7.328,92.176a38.71,38.71,0,0,1,.462,4.5l0,1.581-3.04-.112c-1.672-.062-8.287-.175-14.7-.252Z" fill="#5dc004"/>
          <path id="path48" d="M399.663,730.5c-20.479-2.036-35.4-6.144-51.317-14.128a131.1,131.1,0,0,1-35.179-24.948c-3.194-3.1-7.655-7.821-9.913-10.5C299.238,676.173,289,661.381,289,660.336c0-.29.93-.777,2.067-1.082s4.786-1.3,8.109-2.208,6.212-1.653,6.421-1.653a33.643,33.643,0,0,1,3.783,4.986c18.476,27.065,46,45.547,76.492,51.374,11.786,2.252,28.317,2.59,39.569.81a117.409,117.409,0,0,0,74.827-43.683c2.3-2.882,4.555-5.885,5.021-6.673a4.852,4.852,0,0,1,1.359-1.626,60,60,0,0,1,8.291,2.309c5.61,1.8,7.823,2.73,7.936,3.319.257,1.333-7.269,11.676-14.212,19.532A161.771,161.771,0,0,1,488.9,703.59c-19.276,14.445-38.648,22.45-62.97,26.019-4.7.69-22.294,1.288-26.267.893Zm129.129-95.234c-3.62-1.907-6.813-3.622-7.1-3.812-.348-.233-.068-2.052.859-5.594,2.9-11.062,3.541-16.352,3.549-29.083s-.4-16.729-2.724-26.972a108.875,108.875,0,0,0-9.149-25.561,113.962,113.962,0,0,0-23.917-33.1,118.513,118.513,0,0,0-61.952-32.125c-2.408-.457-4.462-.9-4.564-.984-.35-.288,0-15.994.361-16.361.834-.841,20.065,3.331,27.551,5.978a137.24,137.24,0,0,1,90.562,109.913c1.345,8.566,1.219,28.923-.236,38.184-1.567,9.971-4.993,22.671-6.175,22.893a54.987,54.987,0,0,1-7.068-3.375Zm-251.138-4.074c-.522-.872-2.3-8.094-3.212-13.012-4.108-22.259-1.768-47.087,6.525-69.25,4.34-11.6,12.371-25.64,21.181-37.033,4.951-6.4,16.622-17.841,23.731-23.259a141.206,141.206,0,0,1,38.754-20.856c8.756-2.974,24.77-6.515,25.553-5.649.5.548,1.5,15.373,1.071,15.8a45.718,45.718,0,0,1-6.43,1.62,120.335,120.335,0,0,0-82.8,64.2,104.951,104.951,0,0,0-8.376,21.4,98.316,98.316,0,0,0-3.7,21.646,114.758,114.758,0,0,0,2.481,33.291c1.2,4.845,1.193,5.057-.139,5.617-.6.253-3.933,1.671-7.4,3.151-6.629,2.828-6.881,2.909-7.23,2.326Z" fill="#141d39"/>
        </g>
      </g>
    </g>
    <g id="Group_205" data-name="Group 205" transform="translate(0 4)">
      <text id="GREENPRINT" transform="translate(18840 -13751)" font-size="186" font-family="OpenSans-Bold, Open Sans" font-weight="700" letter-spacing="0.009em"><tspan x="-596.094" y="0">GREENPRINT</tspan></text>
      <text id="FARMERS_INITIATIVE" data-name="FARMERS INITIATIVE" transform="translate(18820 -13637)" fill="#5dc004" font-size="89" font-family="OpenSans-Bold, Open Sans" font-weight="700" letter-spacing="0.169em"><tspan x="-575.869" y="0">FARMERS INITIATIVE</tspan></text>
      <text id="Feeding_Africa._Growing_Prosperity._Planting_the_Future." data-name="Feeding Africa. Growing Prosperity. Planting the Future." transform="translate(18876 -13553)" font-size="49" font-family="Poppins-Regular, Poppins" letter-spacing="-0.023em"><tspan x="-632.468" y="0">Feeding Africa. Growing Prosperity. Planting the Future.</tspan></text>
    </g>
  </g>
</svg>
